<svg width="232" height="219" viewBox="0 0 232 219" fill="none" xmlns="http://www.w3.org/2000/svg">
    <path d="M180.698 33.457H54.1641V66.3863H180.698V33.457Z" fill="#185E7C"/>
    <path d="M180.698 66.3828H54.1641V99.312H180.698V66.3828Z" fill="#16A9B7"/>
    <path d="M180.698 99.3125L149.065 131.743H85.7976L54.1641 99.3125H180.698Z" fill="#EBC41C"/>
    <path d="M149.065 131.738L133.012 148.203H101.379L85.7979 131.738H149.065Z" fill="#E97D32"/>
    <path d="M133.011 148.203L117.43 164.668L101.377 148.203H133.011Z" fill="#070305"/>
    <path d="M180.699 0.523438V33.4526H148.594L180.699 0.523438Z" fill="#093E60"/>
    <path d="M85.7976 33.4526H54.1641V0.523438L85.7976 33.4526Z" fill="#093E60"/>
    <path d="M0.0996094 217.994V176.32H6.72498V211.66H27.5476V217.994H0.0996094Z" fill="#070305"/>
    <path d="M59.0966 205.993H36.6966C37.3276 210.327 40.4825 212.994 45.5304 212.994C48.6853 212.994 51.8403 211.66 53.4177 209.994L57.5192 213.661C54.6797 216.661 50.2628 218.662 45.5304 218.662C40.798 218.662 37.3276 217.328 34.4881 214.328C31.6487 211.66 30.3867 207.66 30.3867 202.992C30.3867 198.325 31.6487 194.657 34.4881 191.99C37.0121 189.323 40.4825 187.656 44.8994 187.656C54.3642 187.99 60.0431 194.657 59.0966 205.993ZM36.6966 200.659H52.7868C52.4713 196.324 49.3163 193.657 44.5839 193.657C40.4825 193.657 37.6431 196.324 36.6966 200.659Z" fill="#070305"/>
    <path d="M83.39 216.999C81.497 217.999 79.2886 218.332 77.0801 218.332C71.0857 218.332 67.9308 214.665 67.9308 207.664V193.995H62.5674V188.327H67.9308V180.659L74.2406 179.992V188.327H82.128V193.995H74.2406V207.664C74.2406 210.664 75.5026 212.331 78.0266 212.331C79.2885 212.331 80.235 211.998 81.497 211.331L83.39 216.999Z" fill="#070305"/>
    <path d="M85.9141 214.328L88.7535 209.327C91.2775 211.66 94.7479 212.661 98.5338 212.661C102.32 212.661 104.213 211.66 104.213 209.327C104.213 207.326 102.32 206.326 98.2183 205.659C90.962 204.993 86.8605 201.659 86.8605 196.658C86.8605 191.324 91.5929 187.656 98.8493 187.656C102.951 187.656 106.737 188.656 109.892 190.99L107.052 195.658C104.528 193.991 102.004 192.991 99.1648 192.991C95.0634 192.991 92.8549 193.991 92.8549 196.324C92.8549 198.325 94.4324 199.325 98.5338 199.658C106.737 200.659 110.523 203.326 110.523 208.993C110.523 214.328 105.79 218.328 98.5338 218.328C93.8014 218.662 89.7 217.328 85.9141 214.328Z" fill="#070305"/>
    <path d="M135.449 176.32C139.866 176.32 143.336 177.654 145.86 180.321C148.384 182.988 149.646 186.655 149.646 190.99C149.646 195.324 148.384 198.991 145.86 201.658C143.336 204.325 139.866 205.659 135.449 205.659H123.776V218.328H117.15V176.654H135.449V176.32ZM135.134 198.991C140.181 198.991 143.336 195.657 143.336 190.656C143.336 185.655 140.181 182.321 135.134 182.321H123.46V198.658H135.134V198.991Z" fill="#070305"/>
    <path d="M161.318 176.32H155.008V217.994H161.318V176.32Z" fill="#070305"/>
    <path d="M191.289 188.654H196.968V218.326H191.289V214.325C189.081 217.325 185.61 218.992 181.193 218.992C177.092 218.992 173.621 217.659 171.097 214.658C168.573 211.658 167.312 207.99 167.312 203.656C167.312 199.322 168.573 195.322 171.097 192.654C173.621 189.654 177.092 188.32 181.193 188.32C185.61 188.32 189.081 189.987 191.289 192.988V188.654ZM182.14 212.658C184.664 212.658 186.872 211.658 188.45 209.991C190.027 208.324 190.974 205.99 190.974 203.323C190.974 200.656 190.027 198.322 188.45 196.655C186.872 194.988 184.979 193.988 182.14 193.988C179.616 193.988 177.407 194.988 175.83 196.655C174.252 198.322 173.306 200.656 173.306 203.323C173.306 205.99 174.252 208.324 175.83 209.991C177.723 211.658 179.616 212.658 182.14 212.658Z" fill="#070305"/>
    <path d="M228.834 191.659C231.042 194.327 231.989 197.661 231.989 201.661V217.997H225.679V201.995C225.679 196.66 223.155 193.66 218.738 193.66C214.006 193.66 210.851 197.327 210.851 202.328V217.997H204.541V188.326H210.22V192.326C212.744 189.326 215.899 187.992 220 187.992C223.786 187.992 226.626 189.326 228.834 191.659Z" fill="#070305"/>
</svg>
