<svg width="41" height="41" viewBox="0 0 41 41" fill="none" xmlns="http://www.w3.org/2000/svg">
<circle cx="20.5938" cy="20.5" r="20" fill="#00A8B5"/>
<path fill-rule="evenodd" clip-rule="evenodd" d="M18.5693 21.8338C18.5693 20.6678 19.5145 19.7227 20.6804 19.7227C21.8464 19.7227 22.7915 20.6678 22.7915 21.8338C22.7915 22.9997 21.8464 23.9449 20.6804 23.9449C19.5145 23.9449 18.5693 22.9997 18.5693 21.8338ZM20.6804 17.7227C18.4099 17.7227 16.5693 19.5633 16.5693 21.8338C16.5693 24.1043 18.4099 25.9449 20.6804 25.9449C22.9509 25.9449 24.7915 24.1043 24.7915 21.8338C24.7915 19.5633 22.9509 17.7227 20.6804 17.7227ZM26.9027 20.0553C27.639 20.0553 28.236 19.4584 28.236 18.722C28.236 17.9856 27.639 17.3887 26.9027 17.3887C26.1663 17.3887 25.5693 17.9856 25.5693 18.722C25.5693 19.4584 26.1663 20.0553 26.9027 20.0553Z" fill="white"/>
<path fill-rule="evenodd" clip-rule="evenodd" d="M18.8137 11.5C17.188 11.5 15.7278 12.5963 15.2843 14.1667H13.4804C11.417 14.1667 9.81372 15.7699 9.81372 17.8333V25.8333C9.81372 27.8967 11.417 29.5 13.4804 29.5H27.7026C29.766 29.5 31.3693 27.8967 31.3693 25.8333V17.8604C31.4761 15.7348 29.7216 14.1667 27.7915 14.1667H25.9839C25.553 12.6641 24.1765 11.5 22.4582 11.5H18.8137ZM18.8137 13.5C17.922 13.5 17.1471 14.2294 17.1471 15.1667V16.1667H13.4804C12.5216 16.1667 11.8137 16.8745 11.8137 17.8333V25.8333C11.8137 26.7922 12.5216 27.5 13.4804 27.5H27.7026C28.6614 27.5 29.3693 26.7922 29.3693 25.8333V17.804L29.371 17.7746C29.4228 16.8941 28.6962 16.1667 27.7915 16.1667H24.1248V15.1667C24.1248 14.2749 23.3954 13.5 22.4582 13.5H18.8137Z" fill="white"/>
</svg>
