<svg width="17" height="16" viewBox="0 0 17 16" fill="none" xmlns="http://www.w3.org/2000/svg">
<g clip-path="url(#clip0_711_3398)">
<path d="M5.67124 5.33333C5.16657 5.33333 4.81724 5.72467 4.7479 6.11133L3.83324 10.6667H4.81257L4.9959 9.684H6.33324L6.5079 10.6667H7.4999L6.56857 6.12867C6.48857 5.68333 6.1759 5.334 5.67124 5.334V5.33333ZM5.24124 8.66667L5.65724 6.47L6.08257 8.66667H5.24124ZM8.8999 6.99533V8.99533C8.8999 9.326 9.16924 9.59533 9.4999 9.59533C9.80524 9.59533 10.0486 9.36267 10.0852 9.06667H9.4999V8H11.1666V9.06667H11.1592C11.1212 9.95333 10.3959 10.662 9.4999 10.662C8.57924 10.662 7.83324 9.916 7.83324 8.99533V6.99533C7.83324 6.07467 8.57924 5.32867 9.4999 5.32867C10.4206 5.32867 11.1666 6.07467 11.1666 6.99533H10.0999C10.0999 6.66467 9.83057 6.39533 9.4999 6.39533C9.16924 6.39533 8.8999 6.66467 8.8999 6.99533ZM12.8999 6.4V7.60067H14.1666V8.66733H12.8999V9.60067H14.1666V10.6673H11.8332V5.334H14.1666V6.40067L12.8999 6.4ZM16.0846 12C14.6986 14.3873 12.1206 16 9.16724 16C4.7559 16 1.16724 12.4113 1.16724 8C1.16724 3.58867 4.75524 0 9.16657 0C10.8519 0 12.4786 0.532667 13.8332 1.50733V0H15.1666V2.66667C15.1666 3.402 14.5686 4 13.8332 4H11.1666V2.66667H13.1646C12.0152 1.804 10.6166 1.33333 9.16657 1.33333C5.49057 1.33333 2.4999 4.324 2.4999 8C2.4999 11.676 5.49057 14.6667 9.16657 14.6667C11.3412 14.6667 13.2692 13.6153 14.4872 12H16.0839H16.0846Z" fill="#00A8B5"/>
</g>
<defs>
<clipPath id="clip0_711_3398">
<rect width="16" height="16" fill="white" transform="translate(0.5)"/>
</clipPath>
</defs>
</svg>
