<svg width="21" height="21" viewBox="0 0 21 21" fill="none" xmlns="http://www.w3.org/2000/svg">
<g clip-path="url(#clip0_176_2553)">
<path d="M15.888 0.5H4.22135C1.92135 0.5 0.0546875 2.36667 0.0546875 4.66667V16.3333C0.0546875 18.6333 1.92135 20.5 4.22135 20.5H15.888C18.188 20.5 20.0547 18.6333 20.0547 16.3333V4.66667C20.0547 2.36667 18.188 0.5 15.888 0.5ZM18.388 16.3333C18.388 17.7083 17.263 18.8333 15.888 18.8333H4.22135C2.84635 18.8333 1.72135 17.7083 1.72135 16.3333V4.66667C1.72135 3.29167 2.84635 2.16667 4.22135 2.16667H15.888C17.263 2.16667 18.388 3.29167 18.388 4.66667V16.3333ZM4.22135 8.83333C4.22135 8.375 4.59635 8 5.05469 8H12.5547C13.013 8 13.388 8.375 13.388 8.83333C13.388 9.29167 13.013 9.66667 12.5547 9.66667H5.05469C4.59635 9.66667 4.22135 9.29167 4.22135 8.83333ZM4.22135 5.5C4.22135 5.04167 4.59635 4.66667 5.05469 4.66667H10.0547C10.513 4.66667 10.888 5.04167 10.888 5.5C10.888 5.95833 10.513 6.33333 10.0547 6.33333H5.05469C4.59635 6.33333 4.22135 5.95833 4.22135 5.5ZM15.888 12.1667C15.888 12.625 15.513 13 15.0547 13H5.05469C4.59635 13 4.22135 12.625 4.22135 12.1667C4.22135 11.7083 4.59635 11.3333 5.05469 11.3333H15.0547C15.513 11.3333 15.888 11.7083 15.888 12.1667ZM8.38802 15.5C8.38802 15.9583 8.01302 16.3333 7.55469 16.3333H5.05469C4.59635 16.3333 4.22135 15.9583 4.22135 15.5C4.22135 15.0417 4.59635 14.6667 5.05469 14.6667H7.55469C8.01302 14.6667 8.38802 15.0417 8.38802 15.5Z" fill="#00A8B5"/>
</g>
<defs>
<clipPath id="clip0_176_2553">
<rect width="20" height="20" fill="white" transform="translate(0.0546875 0.5)"/>
</clipPath>
</defs>
</svg>
