<svg width="20" height="20" viewBox="0 0 20 20" fill="none" xmlns="http://www.w3.org/2000/svg">
<g clip-path="url(#clip0_176_2553)">
<path d="M15.8333 0H4.16667C1.86667 0 0 1.86667 0 4.16667V15.8333C0 18.1333 1.86667 20 4.16667 20H15.8333C18.1333 20 20 18.1333 20 15.8333V4.16667C20 1.86667 18.1333 0 15.8333 0ZM18.3333 15.8333C18.3333 17.2083 17.2083 18.3333 15.8333 18.3333H4.16667C2.79167 18.3333 1.66667 17.2083 1.66667 15.8333V4.16667C1.66667 2.79167 2.79167 1.66667 4.16667 1.66667H15.8333C17.2083 1.66667 18.3333 2.79167 18.3333 4.16667V15.8333ZM4.16667 8.33333C4.16667 7.875 4.54167 7.5 5 7.5H12.5C12.9583 7.5 13.3333 7.875 13.3333 8.33333C13.3333 8.79167 12.9583 9.16667 12.5 9.16667H5C4.54167 9.16667 4.16667 8.79167 4.16667 8.33333ZM4.16667 5C4.16667 4.54167 4.54167 4.16667 5 4.16667H10C10.4583 4.16667 10.8333 4.54167 10.8333 5C10.8333 5.45833 10.4583 5.83333 10 5.83333H5C4.54167 5.83333 4.16667 5.45833 4.16667 5ZM15.8333 11.6667C15.8333 12.125 15.4583 12.5 15 12.5H5C4.54167 12.5 4.16667 12.125 4.16667 11.6667C4.16667 11.2083 4.54167 10.8333 5 10.8333H15C15.4583 10.8333 15.8333 11.2083 15.8333 11.6667ZM8.33333 15C8.33333 15.4583 7.95833 15.8333 7.5 15.8333H5C4.54167 15.8333 4.16667 15.4583 4.16667 15C4.16667 14.5417 4.54167 14.1667 5 14.1667H7.5C7.95833 14.1667 8.33333 14.5417 8.33333 15Z" fill="#E97D32"/>
</g>
<defs>
<clipPath id="clip0_176_2553">
<rect width="20" height="20" fill="white"/>
</clipPath>
</defs>
</svg>
