<svg width="17" height="17" viewBox="0 0 17 17" fill="none" xmlns="http://www.w3.org/2000/svg">
<g clip-path="url(#clip0_176_2563)">
<path d="M12.7214 3.16667H11.988C11.8333 2.41428 11.4239 1.73823 10.8289 1.25248C10.2338 0.766727 9.48949 0.50097 8.72135 0.5L7.38802 0.5C6.61988 0.50097 5.87557 0.766727 5.28052 1.25248C4.68547 1.73823 4.27609 2.41428 4.12135 3.16667H3.38802C2.50429 3.16773 1.65706 3.51925 1.03217 4.14415C0.407275 4.76904 0.0557461 5.61627 0.0546875 6.5L0.0546875 13.1667C0.0557461 14.0504 0.407275 14.8976 1.03217 15.5225C1.65706 16.1474 2.50429 16.4989 3.38802 16.5H12.7214C13.6051 16.4989 14.4523 16.1474 15.0772 15.5225C15.7021 14.8976 16.0536 14.0504 16.0547 13.1667V6.5C16.0536 5.61627 15.7021 4.76904 15.0772 4.14415C14.4523 3.51925 13.6051 3.16773 12.7214 3.16667ZM7.38802 1.83333H8.72135C9.13353 1.83504 9.53511 1.96406 9.87115 2.20273C10.2072 2.44139 10.4613 2.77806 10.5987 3.16667H5.51069C5.64808 2.77806 5.90218 2.44139 6.23822 2.20273C6.57427 1.96406 6.97585 1.83504 7.38802 1.83333ZM3.38802 4.5H12.7214C13.2518 4.5 13.7605 4.71071 14.1356 5.08579C14.5106 5.46086 14.7214 5.96957 14.7214 6.5V8.5H1.38802V6.5C1.38802 5.96957 1.59873 5.46086 1.97381 5.08579C2.34888 4.71071 2.85759 4.5 3.38802 4.5ZM12.7214 15.1667H3.38802C2.85759 15.1667 2.34888 14.956 1.97381 14.5809C1.59873 14.2058 1.38802 13.6971 1.38802 13.1667V9.83333H7.38802V10.5C7.38802 10.6768 7.45826 10.8464 7.58328 10.9714C7.70831 11.0964 7.87788 11.1667 8.05469 11.1667C8.2315 11.1667 8.40107 11.0964 8.52609 10.9714C8.65112 10.8464 8.72135 10.6768 8.72135 10.5V9.83333H14.7214V13.1667C14.7214 13.6971 14.5106 14.2058 14.1356 14.5809C13.7605 14.956 13.2518 15.1667 12.7214 15.1667Z" fill="#00A8B5"/>
</g>
<defs>
<clipPath id="clip0_176_2563">
<rect width="16" height="16" fill="white" transform="translate(0.0546875 0.5)"/>
</clipPath>
</defs>
</svg>
