<svg width="15" height="15" viewBox="0 0 15 15" fill="none" xmlns="http://www.w3.org/2000/svg">
<g clip-path="url(#clip0_428_3823)">
<path d="M11.9202 1.66667H11.3369V1.08333C11.3369 0.928624 11.2755 0.780251 11.1661 0.670854C11.0567 0.561458 10.9083 0.5 10.7536 0.5C10.5989 0.5 10.4505 0.561458 10.3411 0.670854C10.2317 0.780251 10.1702 0.928624 10.1702 1.08333V1.66667H5.50358V1.08333C5.50358 0.928624 5.44212 0.780251 5.33273 0.670854C5.22333 0.561458 5.07496 0.5 4.92025 0.5C4.76554 0.5 4.61716 0.561458 4.50777 0.670854C4.39837 0.780251 4.33691 0.928624 4.33691 1.08333V1.66667H3.75358C2.98032 1.66759 2.23899 1.97518 1.69221 2.52196C1.14543 3.06874 0.83784 3.81007 0.836914 4.58333L0.836914 11.5833C0.83784 12.3566 1.14543 13.0979 1.69221 13.6447C2.23899 14.1915 2.98032 14.4991 3.75358 14.5H11.9202C12.6935 14.4991 13.4348 14.1915 13.9816 13.6447C14.5284 13.0979 14.836 12.3566 14.8369 11.5833V4.58333C14.836 3.81007 14.5284 3.06874 13.9816 2.52196C13.4348 1.97518 12.6935 1.66759 11.9202 1.66667ZM2.00358 4.58333C2.00358 4.1192 2.18796 3.67409 2.51614 3.3459C2.84433 3.01771 3.28945 2.83333 3.75358 2.83333H11.9202C12.3844 2.83333 12.8295 3.01771 13.1577 3.3459C13.4859 3.67409 13.6702 4.1192 13.6702 4.58333V5.16667H2.00358V4.58333ZM11.9202 13.3333H3.75358C3.28945 13.3333 2.84433 13.149 2.51614 12.8208C2.18796 12.4926 2.00358 12.0475 2.00358 11.5833V6.33333H13.6702V11.5833C13.6702 12.0475 13.4859 12.4926 13.1577 12.8208C12.8295 13.149 12.3844 13.3333 11.9202 13.3333Z" fill="#005F6A"/>
<path d="M7.83691 10.125C8.32016 10.125 8.71191 9.73325 8.71191 9.25C8.71191 8.76675 8.32016 8.375 7.83691 8.375C7.35366 8.375 6.96191 8.76675 6.96191 9.25C6.96191 9.73325 7.35366 10.125 7.83691 10.125Z" fill="#005F6A"/>
<path d="M4.92017 10.125C5.40342 10.125 5.79517 9.73325 5.79517 9.25C5.79517 8.76675 5.40342 8.375 4.92017 8.375C4.43692 8.375 4.04517 8.76675 4.04517 9.25C4.04517 9.73325 4.43692 10.125 4.92017 10.125Z" fill="#005F6A"/>
<path d="M10.7537 10.125C11.2369 10.125 11.6287 9.73325 11.6287 9.25C11.6287 8.76675 11.2369 8.375 10.7537 8.375C10.2704 8.375 9.87866 8.76675 9.87866 9.25C9.87866 9.73325 10.2704 10.125 10.7537 10.125Z" fill="#005F6A"/>
</g>
<defs>
<clipPath id="clip0_428_3823">
<rect width="14" height="14" fill="white" transform="translate(0.836914 0.5)"/>
</clipPath>
</defs>
</svg>
