<svg width="21" height="21" viewBox="0 0 21 21" fill="none" xmlns="http://www.w3.org/2000/svg">
<g clip-path="url(#clip0_176_2528)">
<path d="M16.2318 2.16667H15.3984V1.33333C15.3984 0.873333 15.0259 0.5 14.5651 0.5C14.1043 0.5 13.7318 0.873333 13.7318 1.33333V2.16667H7.0651V1.33333C7.0651 0.873333 6.6926 0.5 6.23177 0.5C5.77094 0.5 5.39844 0.873333 5.39844 1.33333V2.16667H4.5651C2.2676 2.16667 0.398438 4.03583 0.398438 6.33333V16.3333C0.398438 18.6308 2.2676 20.5 4.5651 20.5H16.2318C18.5293 20.5 20.3984 18.6308 20.3984 16.3333V6.33333C20.3984 4.03583 18.5293 2.16667 16.2318 2.16667ZM4.5651 3.83333H16.2318C17.6101 3.83333 18.7318 4.955 18.7318 6.33333V7.16667H2.0651V6.33333C2.0651 4.955 3.18677 3.83333 4.5651 3.83333ZM16.2318 18.8333H4.5651C3.18677 18.8333 2.0651 17.7117 2.0651 16.3333V8.83333H18.7318V16.3333C18.7318 17.7117 17.6101 18.8333 16.2318 18.8333ZM16.2318 12.1667C16.2318 12.6267 15.8593 13 15.3984 13H5.39844C4.9376 13 4.5651 12.6267 4.5651 12.1667C4.5651 11.7067 4.9376 11.3333 5.39844 11.3333H15.3984C15.8593 11.3333 16.2318 11.7067 16.2318 12.1667ZM10.3984 15.5C10.3984 15.96 10.0259 16.3333 9.5651 16.3333H5.39844C4.9376 16.3333 4.5651 15.96 4.5651 15.5C4.5651 15.04 4.9376 14.6667 5.39844 14.6667H9.5651C10.0259 14.6667 10.3984 15.04 10.3984 15.5Z" fill="#185E7C"/>
</g>
<defs>
<clipPath id="clip0_176_2528">
<rect width="20" height="20" fill="white" transform="translate(0.398438 0.5)"/>
</clipPath>
</defs>
</svg>
