<svg width="16" height="17" viewBox="0 0 16 17" fill="none" xmlns="http://www.w3.org/2000/svg">
<path d="M5.33333 8.49316H4C3.26467 8.49316 2.66667 9.09116 2.66667 9.8265V11.1598C2.66667 11.8952 3.26467 12.4932 4 12.4932H5.33333C6.06867 12.4932 6.66667 11.8952 6.66667 11.1598V9.8265C6.66667 9.09116 6.06867 8.49316 5.33333 8.49316ZM4 11.1598V9.8265H5.33333V11.1598H4ZM12.6667 1.8265H12V1.15983C12 0.791831 11.702 0.493164 11.3333 0.493164C10.9647 0.493164 10.6667 0.791831 10.6667 1.15983V1.8265H5.33333V1.15983C5.33333 0.791831 5.03533 0.493164 4.66667 0.493164C4.298 0.493164 4 0.791831 4 1.15983V1.8265H3.33333C1.49533 1.8265 0 3.32183 0 5.15983V13.1598C0 14.9978 1.49533 16.4932 3.33333 16.4932H12.6667C14.5047 16.4932 16 14.9978 16 13.1598V5.15983C16 3.32183 14.5047 1.8265 12.6667 1.8265ZM3.33333 3.15983H12.6667C13.7693 3.15983 14.6667 4.05716 14.6667 5.15983V5.8265H1.33333V5.15983C1.33333 4.05716 2.23067 3.15983 3.33333 3.15983ZM12.6667 15.1598H3.33333C2.23067 15.1598 1.33333 14.2625 1.33333 13.1598V7.15983H14.6667V13.1598C14.6667 14.2625 13.7693 15.1598 12.6667 15.1598Z" fill="#00A8B5"/>
</svg>
