<svg width="21" height="21" viewBox="0 0 21 21" fill="none" xmlns="http://www.w3.org/2000/svg">
<g clip-path="url(#clip0_1_2527)">
<path d="M16.724 1.84635H15.8906V1.01302C15.8906 0.553021 15.5181 0.179688 15.0573 0.179688C14.5965 0.179688 14.224 0.553021 14.224 1.01302V1.84635H7.55729V1.01302C7.55729 0.553021 7.18479 0.179688 6.72396 0.179688C6.26312 0.179688 5.89062 0.553021 5.89062 1.01302V1.84635H5.05729C2.75979 1.84635 0.890625 3.71552 0.890625 6.01302V16.013C0.890625 18.3105 2.75979 20.1797 5.05729 20.1797H16.724C19.0215 20.1797 20.8906 18.3105 20.8906 16.013V6.01302C20.8906 3.71552 19.0215 1.84635 16.724 1.84635ZM5.05729 3.51302H16.724C18.1023 3.51302 19.224 4.63469 19.224 6.01302V6.84635H2.55729V6.01302C2.55729 4.63469 3.67896 3.51302 5.05729 3.51302ZM16.724 18.513H5.05729C3.67896 18.513 2.55729 17.3914 2.55729 16.013V8.51302H19.224V16.013C19.224 17.3914 18.1023 18.513 16.724 18.513ZM16.724 11.8464C16.724 12.3064 16.3515 12.6797 15.8906 12.6797H5.89062C5.42979 12.6797 5.05729 12.3064 5.05729 11.8464C5.05729 11.3864 5.42979 11.013 5.89062 11.013H15.8906C16.3515 11.013 16.724 11.3864 16.724 11.8464ZM10.8906 15.1797C10.8906 15.6397 10.5181 16.013 10.0573 16.013H5.89062C5.42979 16.013 5.05729 15.6397 5.05729 15.1797C5.05729 14.7197 5.42979 14.3464 5.89062 14.3464H10.0573C10.5181 14.3464 10.8906 14.7197 10.8906 15.1797Z" fill="#E97D32"/>
</g>
<defs>
<clipPath id="clip0_1_2527">
<rect width="20" height="20" fill="white" transform="translate(0.890625 0.179688)"/>
</clipPath>
</defs>
</svg>
