<svg width="40" height="41" viewBox="0 0 40 41" fill="none" xmlns="http://www.w3.org/2000/svg">
<circle cx="20.0071" cy="20.5" r="20" fill="#00A8B5"/>
<path fill-rule="evenodd" clip-rule="evenodd" d="M17.9827 21.8338C17.9827 20.6678 18.9278 19.7227 20.0937 19.7227C21.2597 19.7227 22.2048 20.6678 22.2048 21.8338C22.2048 22.9997 21.2597 23.9449 20.0937 23.9449C18.9278 23.9449 17.9827 22.9997 17.9827 21.8338ZM20.0937 17.7227C17.8233 17.7227 15.9827 19.5633 15.9827 21.8338C15.9827 24.1043 17.8233 25.9449 20.0937 25.9449C22.3642 25.9449 24.2048 24.1043 24.2048 21.8338C24.2048 19.5633 22.3642 17.7227 20.0937 17.7227ZM26.316 20.0553C27.0523 20.0553 27.6493 19.4584 27.6493 18.722C27.6493 17.9856 27.0523 17.3887 26.316 17.3887C25.5796 17.3887 24.9826 17.9856 24.9826 18.722C24.9826 19.4584 25.5796 20.0553 26.316 20.0553Z" fill="white"/>
<path fill-rule="evenodd" clip-rule="evenodd" d="M18.227 11.5C16.6013 11.5 15.1411 12.5963 14.6976 14.1667H12.8937C10.8303 14.1667 9.22705 15.7699 9.22705 17.8333V25.8333C9.22705 27.8967 10.8303 29.5 12.8937 29.5H27.1159C29.1793 29.5 30.7826 27.8967 30.7826 25.8333V17.8604C30.8894 15.7348 29.1349 14.1667 27.2048 14.1667H25.3972C24.9663 12.6641 23.5898 11.5 21.8715 11.5H18.227ZM18.227 13.5C17.3353 13.5 16.5604 14.2294 16.5604 15.1667V16.1667H12.8937C11.9349 16.1667 11.2271 16.8745 11.2271 17.8333V25.8333C11.2271 26.7922 11.9349 27.5 12.8937 27.5H27.1159C28.0747 27.5 28.7826 26.7922 28.7826 25.8333V17.804L28.7843 17.7746C28.8361 16.8941 28.1095 16.1667 27.2048 16.1667H23.5381V15.1667C23.5381 14.2749 22.8087 13.5 21.8715 13.5H18.227Z" fill="white"/>
</svg>
