<svg width="24" height="24" viewBox="0 0 24 24" fill="none" xmlns="http://www.w3.org/2000/svg">
<g clip-path="url(#clip0_237_3948)">
<path d="M12 0C18.6274 0 24 5.37257 24 12C24 18.6274 18.6274 24 12 24C5.37257 24 0 18.6274 0 12C0 5.37257 5.37257 0 12 0ZM12 1.71429C6.31935 1.71429 1.71429 6.31935 1.71429 12C1.71429 17.6806 6.31935 22.2857 12 22.2857C17.6806 22.2857 22.2857 17.6806 22.2857 12C22.2857 6.31935 17.6806 1.71429 12 1.71429Z" fill="#F26C55" fill-opacity="0.9"/>
<path d="M16.5534 7.32279C16.877 7.6464 16.8877 8.16431 16.5858 8.50085L16.5534 8.53499L13.1131 11.9751L16.5789 15.4408C16.9136 15.7755 16.9136 16.3182 16.5789 16.653C16.2553 16.9765 15.7374 16.9873 15.4008 16.6853L15.3667 16.653L11.9009 13.1871L8.53451 16.5539C8.19977 16.8887 7.65706 16.8887 7.32232 16.554C6.99875 16.2304 6.988 15.7125 7.28997 15.3759L7.32232 15.3418L10.6889 11.9752L7.34774 8.63405C7.013 8.29931 7.013 7.7566 7.3477 7.42186C7.67131 7.09829 8.18921 7.08754 8.52575 7.38951L8.5599 7.42186L11.9011 10.7632L15.3412 7.32284C15.6759 6.9881 16.2186 6.9881 16.5534 7.32279Z" fill="#F26C55" fill-opacity="0.9"/>
</g>
<defs>
<clipPath id="clip0_237_3948">
<rect width="24" height="24" fill="white"/>
</clipPath>
</defs>
</svg>
