<svg width="17" height="17" viewBox="0 0 17 17" fill="none" xmlns="http://www.w3.org/2000/svg">
    <g clip-path="url(#clip0_2_12283)">
        <path
            d="M15.5444 7.83333C15.5444 6.36267 14.3484 5.16667 12.8777 5.16667V3.83333C12.8777 1.99533 11.3824 0.5 9.54435 0.5H6.87769C5.03969 0.5 3.54435 1.99533 3.54435 3.83333V5.16667C2.07369 5.16667 0.877686 6.36267 0.877686 7.83333V11.5C0.877686 12.4193 1.62502 13.1667 2.54435 13.1667H7.54435V15.1667H4.87769C4.50969 15.1667 4.21102 15.4647 4.21102 15.8333C4.21102 16.202 4.50969 16.5 4.87769 16.5H11.5444C11.9124 16.5 12.211 16.202 12.211 15.8333C12.211 15.4647 11.9124 15.1667 11.5444 15.1667H8.87769V13.1667H13.8777C14.797 13.1667 15.5444 12.4193 15.5444 11.5V7.83333ZM2.54435 9.83333C2.43035 9.83333 2.31902 9.84533 2.21102 9.86733V7.83333C2.21102 7.098 2.80902 6.5 3.54435 6.5V8.5H12.8777V6.5C13.613 6.5 14.211 7.098 14.211 7.83333V9.86733C14.103 9.84533 13.9917 9.83333 13.8777 9.83333H2.54435Z"
            fill="#E97D32" />
    </g>
    <defs>
        <clipPath id="clip0_2_12283">
            <rect width="16" height="16" fill="white" transform="translate(0.210938 0.5)" />
        </clipPath>
    </defs>
</svg>
