<svg width="17" height="17" viewBox="0 0 17 17" fill="none" xmlns="http://www.w3.org/2000/svg">
<g clip-path="url(#clip0_380_6320)">
<path d="M13.5021 0.5H4.16878C3.28505 0.501059 2.43782 0.852588 1.81293 1.47748C1.18804 2.10237 0.836508 2.9496 0.835449 3.83333L0.835449 13.1667C0.836508 14.0504 1.18804 14.8976 1.81293 15.5225C2.43782 16.1474 3.28505 16.4989 4.16878 16.5H13.5021C14.3858 16.4989 15.2331 16.1474 15.858 15.5225C16.4829 14.8976 16.8344 14.0504 16.8354 13.1667V3.83333C16.8344 2.9496 16.4829 2.10237 15.858 1.47748C15.2331 0.852588 14.3858 0.501059 13.5021 0.5ZM15.5021 13.1667C15.5021 13.6971 15.2914 14.2058 14.9163 14.5809C14.5413 14.956 14.0325 15.1667 13.5021 15.1667H4.16878C3.63835 15.1667 3.12964 14.956 2.75457 14.5809C2.3795 14.2058 2.16878 13.6971 2.16878 13.1667V3.83333C2.16878 3.3029 2.3795 2.79419 2.75457 2.41912C3.12964 2.04405 3.63835 1.83333 4.16878 1.83333H13.5021C14.0325 1.83333 14.5413 2.04405 14.9163 2.41912C15.2914 2.79419 15.5021 3.3029 15.5021 3.83333V13.1667Z" fill="#B0B0B0"/>
<path d="M7.05741 11.1127L4.44474 8.50004C4.31972 8.37506 4.15018 8.30484 3.97341 8.30484C3.79663 8.30484 3.62709 8.37506 3.50208 8.50004C3.37709 8.62505 3.30688 8.79459 3.30688 8.97137C3.30688 9.14815 3.37709 9.31768 3.50208 9.4427L6.11474 12.0554C6.23856 12.1792 6.38557 12.2775 6.54737 12.3445C6.70918 12.4116 6.8826 12.4461 7.05774 12.4461C7.23288 12.4461 7.40631 12.4116 7.56811 12.3445C7.72991 12.2775 7.87692 12.1792 8.00074 12.0554L14.1687 5.88737C14.2937 5.76235 14.3639 5.59281 14.3639 5.41604C14.3639 5.23926 14.2937 5.06972 14.1687 4.9447C14.0437 4.81972 13.8742 4.74951 13.6974 4.74951C13.5206 4.74951 13.3511 4.81972 13.2261 4.9447L7.05741 11.1127Z" fill="#B0B0B0"/>
</g>
<defs>
<clipPath id="clip0_380_6320">
<rect width="16" height="16" fill="white" transform="translate(0.835449 0.5)"/>
</clipPath>
</defs>
</svg>
