<svg width="17" height="17" viewBox="0 0 17 17" fill="none" xmlns="http://www.w3.org/2000/svg">
<path d="M1.82151 7.80246C1.21247 7.80246 0.71875 7.33216 0.71875 6.75205C0.71875 6.17192 1.21247 5.70164 1.82151 5.70164H2.37439C3.02729 3.28538 5.33001 1.5 8.07051 1.5C10.811 1.5 13.1137 3.28538 13.7667 5.70164H13.9519C14.5609 5.70164 15.0547 6.17192 15.0547 6.75205C15.0547 7.33216 14.5609 7.80246 13.9519 7.80246H13.9064C13.5446 10.566 11.0697 12.7044 8.07051 12.7044C5.07127 12.7044 2.59638 10.566 2.2346 7.80246H1.82151Z" stroke="#00A8B5" stroke-linejoin="round"/>
<path d="M2.55811 5.70164H3.66087C6.09703 5.70164 8.07193 3.8205 8.07193 1.5" stroke="#00A8B5" stroke-linecap="round" stroke-linejoin="round"/>
<path d="M13.5856 5.70164H12.4828C10.0467 5.70164 8.07178 3.8205 8.07178 1.5" stroke="#00A8B5" stroke-linecap="round" stroke-linejoin="round"/>
<path d="M8.07063 10.6035C8.47666 10.6035 8.8058 10.29 8.8058 9.90326H7.33545C7.33545 10.29 7.66459 10.6035 8.07063 10.6035Z" stroke="#00A8B5" stroke-linejoin="round"/>
<path d="M12.4832 15.5C12.4832 14.2451 11.9057 13.1186 10.9899 12.3488M3.66113 15.5C3.66113 14.2451 4.23871 13.1186 5.15447 12.3488" stroke="#00A8B5" stroke-linecap="round"/>
<path d="M5.86621 7.09674V7.10341" stroke="#00A8B5" stroke-width="1.5" stroke-linecap="round"/>
<path d="M10.2773 7.09674V7.10341" stroke="#00A8B5" stroke-width="1.5" stroke-linecap="round"/>
</svg>
