<svg width="23" height="23" viewBox="0 0 23 23" fill="none" xmlns="http://www.w3.org/2000/svg">
<path d="M2.82782 10.4973C1.99039 10.4973 1.31152 9.82123 1.31152 8.98732C1.31152 8.15339 1.99039 7.47736 2.82782 7.47736H3.58803C4.48577 4.00399 7.65201 1.4375 11.4202 1.4375C15.1884 1.4375 18.3546 4.00399 19.2524 7.47736H19.5071C20.3445 7.47736 21.0234 8.15339 21.0234 8.98732C21.0234 9.82123 20.3445 10.4973 19.5071 10.4973H19.4446C18.9471 14.4698 15.5441 17.5438 11.4202 17.5438C7.29624 17.5438 3.89327 14.4698 3.39582 10.4973H2.82782Z" stroke="#E97D32" stroke-width="1.5" stroke-linejoin="round"/>
<path d="M3.84082 7.47736H5.35712C8.70684 7.47736 11.4223 4.77322 11.4223 1.4375" stroke="#E97D32" stroke-width="1.5" stroke-linecap="round" stroke-linejoin="round"/>
<path d="M19.0039 7.47736H17.4876C14.1379 7.47736 11.4224 4.77322 11.4224 1.4375" stroke="#E97D32" stroke-width="1.5" stroke-linecap="round" stroke-linejoin="round"/>
<path d="M11.42 14.5239C11.9783 14.5239 12.4309 14.0732 12.4309 13.5172H10.4092C10.4092 14.0732 10.8617 14.5239 11.42 14.5239Z" stroke="#E97D32" stroke-linejoin="round"/>
<path d="M17.4873 21.5625C17.4873 19.7586 16.6932 18.1393 15.434 17.0326M5.35693 21.5625C5.35693 19.7586 6.1511 18.1393 7.41027 17.0326" stroke="#E97D32" stroke-width="1.5" stroke-linecap="round"/>
<path d="M8.38965 9.48279V9.49237" stroke="#E97D32" stroke-width="2" stroke-linecap="round"/>
<path d="M14.4546 9.48279V9.49237" stroke="#E97D32" stroke-width="2" stroke-linecap="round"/>
</svg>
