<svg width="15" height="15" viewBox="0 0 15 15" fill="none" xmlns="http://www.w3.org/2000/svg">
<g id="cross-small 2">
<path id="Vector" d="M12.7689 2.38346C12.609 2.2236 12.3921 2.13379 12.166 2.13379C11.9399 2.13379 11.723 2.2236 11.5631 2.38346L7.65245 6.29412L3.74179 2.38346C3.58188 2.2236 3.36502 2.13379 3.1389 2.13379C2.91279 2.13379 2.69593 2.2236 2.53602 2.38346C2.37615 2.54337 2.28635 2.76023 2.28635 2.98635C2.28635 3.21246 2.37615 3.42932 2.53602 3.58923L6.44668 7.49989L2.53602 11.4106C2.37615 11.5705 2.28635 11.7873 2.28635 12.0134C2.28635 12.2396 2.37615 12.4564 2.53602 12.6163C2.69593 12.7762 2.91279 12.866 3.1389 12.866C3.36502 12.866 3.58188 12.7762 3.74179 12.6163L7.65245 8.70567L11.5631 12.6163C11.723 12.7762 11.9399 12.866 12.166 12.866C12.3921 12.866 12.609 12.7762 12.7689 12.6163C12.9287 12.4564 13.0186 12.2396 13.0186 12.0134C13.0186 11.7873 12.9287 11.5705 12.7689 11.4106L8.85822 7.49989L12.7689 3.58923C12.9287 3.42932 13.0186 3.21246 13.0186 2.98635C13.0186 2.76023 12.9287 2.54337 12.7689 2.38346Z" fill="#1D5F6D"/>
</g>
</svg>
