<svg width="21" height="21" viewBox="0 0 21 21" fill="none" xmlns="http://www.w3.org/2000/svg">
<g clip-path="url(#clip0_180_6460)">
<path d="M7.55469 6.74935C7.55469 6.05768 8.11302 5.49935 8.80469 5.49935C9.49635 5.49935 10.0547 6.05768 10.0547 6.74935C10.0547 7.44102 9.49635 7.99935 8.80469 7.99935C8.11302 7.99935 7.55469 7.44102 7.55469 6.74935ZM20.0547 6.33268V11.3327C20.0547 13.6327 18.188 15.4993 15.888 15.4993H8.38802C6.08802 15.4993 4.22135 13.6327 4.22135 11.3327V6.33268C4.22135 4.03268 6.08802 2.16602 8.38802 2.16602H15.888C18.188 2.16602 20.0547 4.03268 20.0547 6.33268ZM5.88802 11.3327C5.88802 11.9743 6.12969 12.5577 6.52969 13.0077L10.8964 8.64102C11.713 7.82435 13.138 7.82435 13.9547 8.64102L14.8214 9.50768C15.013 9.69935 15.338 9.69935 15.5297 9.50768L18.388 6.64935V6.33268C18.388 4.95768 17.263 3.83268 15.888 3.83268H8.38802C7.01302 3.83268 5.88802 4.95768 5.88802 6.33268V11.3327ZM18.388 11.3327V9.00768L16.7047 10.691C15.888 11.5077 14.463 11.5077 13.6464 10.691L12.7797 9.82435C12.588 9.63268 12.2714 9.63268 12.0714 9.82435L8.07969 13.816C8.17969 13.8327 8.27969 13.8327 8.38802 13.8327H15.888C17.263 13.8327 18.388 12.7077 18.388 11.3327ZM14.2214 17.166H4.22135C2.84635 17.166 1.72135 16.041 1.72135 14.666V9.66602C1.72135 9.04935 1.94635 8.45768 2.36302 7.99935C2.67135 7.65768 2.63802 7.13268 2.29635 6.82435C1.95469 6.51602 1.42969 6.54935 1.12135 6.89102C0.438021 7.65768 0.0546875 8.64102 0.0546875 9.67435V14.6743C0.0546875 16.9743 1.92135 18.841 4.22135 18.841H14.2214C14.6797 18.841 15.0547 18.466 15.0547 18.0077C15.0547 17.5493 14.6797 17.1743 14.2214 17.1743V17.166Z" fill="#00A8B5"/>
</g>
<defs>
<clipPath id="clip0_180_6460">
<rect width="20" height="20" fill="white" transform="translate(0.0546875 0.5)"/>
</clipPath>
</defs>
</svg>
