<svg width="17" height="17" viewBox="0 0 17 17" fill="none" xmlns="http://www.w3.org/2000/svg">
<g clip-path="url(#clip0_180_6378)">
<path d="M3.72119 11.8333C4.27348 11.8333 4.72119 11.3856 4.72119 10.8333C4.72119 10.281 4.27348 9.83331 3.72119 9.83331C3.16891 9.83331 2.72119 10.281 2.72119 10.8333C2.72119 11.3856 3.16891 11.8333 3.72119 11.8333Z" fill="#00A8B5"/>
<path d="M12.7214 2.5H3.38802C2.50429 2.50106 1.65706 2.85259 1.03217 3.47748C0.407275 4.10237 0.0557461 4.9496 0.0546875 5.83333L0.0546875 11.1667C0.0557461 12.0504 0.407275 12.8976 1.03217 13.5225C1.65706 14.1474 2.50429 14.4989 3.38802 14.5H12.7214C13.6051 14.4989 14.4523 14.1474 15.0772 13.5225C15.7021 12.8976 16.0536 12.0504 16.0547 11.1667V5.83333C16.0536 4.9496 15.7021 4.10237 15.0772 3.47748C14.4523 2.85259 13.6051 2.50106 12.7214 2.5ZM3.38802 3.83333H12.7214C13.2518 3.83333 13.7605 4.04405 14.1356 4.41912C14.5106 4.79419 14.7214 5.3029 14.7214 5.83333H1.38802C1.38802 5.3029 1.59873 4.79419 1.97381 4.41912C2.34888 4.04405 2.85759 3.83333 3.38802 3.83333ZM12.7214 13.1667H3.38802C2.85759 13.1667 2.34888 12.956 1.97381 12.5809C1.59873 12.2058 1.38802 11.6971 1.38802 11.1667V7.16667H14.7214V11.1667C14.7214 11.6971 14.5106 12.2058 14.1356 12.5809C13.7605 12.956 13.2518 13.1667 12.7214 13.1667Z" fill="#00A8B5"/>
</g>
<defs>
<clipPath id="clip0_180_6378">
<rect width="16" height="16" fill="white" transform="translate(0.0546875 0.5)"/>
</clipPath>
</defs>
</svg>
