<svg width="15" height="15" viewBox="0 0 15 15" fill="none" xmlns="http://www.w3.org/2000/svg">
<path d="M12.6713 2.86027C12.5113 2.7004 12.2945 2.6106 12.0684 2.6106C11.8423 2.6106 11.6254 2.7004 11.4655 2.86027L7.55483 6.77093L3.64416 2.86027C3.48425 2.7004 3.26739 2.6106 3.04128 2.6106C2.81516 2.6106 2.5983 2.7004 2.43839 2.86027C2.27853 3.02018 2.18872 3.23704 2.18872 3.46315C2.18872 3.68927 2.27853 3.90613 2.43839 4.06604L6.34905 7.9767L2.43839 11.8874C2.27853 12.0473 2.18872 12.2641 2.18872 12.4902C2.18872 12.7164 2.27853 12.9332 2.43839 13.0931C2.5983 13.253 2.81516 13.3428 3.04128 13.3428C3.26739 13.3428 3.48425 13.253 3.64416 13.0931L7.55483 9.18247L11.4655 13.0931C11.6254 13.253 11.8423 13.3428 12.0684 13.3428C12.2945 13.3428 12.5113 13.253 12.6713 13.0931C12.8311 12.9332 12.9209 12.7164 12.9209 12.4902C12.9209 12.2641 12.8311 12.0473 12.6713 11.8874L8.7606 7.9767L12.6713 4.06604C12.8311 3.90613 12.9209 3.68927 12.9209 3.46315C12.9209 3.23704 12.8311 3.02018 12.6713 2.86027Z" fill="#005F6A"/>
</svg>
