<svg width="13" height="13" viewBox="0 0 13 13" fill="none" xmlns="http://www.w3.org/2000/svg">
<g id="location-crosshairs 1" clip-path="url(#clip0_1_4709)">
<path id="Vector" d="M6.01172 3.96143C4.63322 3.96143 3.51172 5.08293 3.51172 6.46143C3.51172 7.83993 4.63322 8.96143 6.01172 8.96143C7.39022 8.96143 8.51172 7.83993 8.51172 6.46143C8.51172 5.08293 7.39022 3.96143 6.01172 3.96143ZM6.01172 7.96143C5.18472 7.96143 4.51172 7.28843 4.51172 6.46143C4.51172 5.63443 5.18472 4.96143 6.01172 4.96143C6.83872 4.96143 7.51172 5.63443 7.51172 6.46143C7.51172 7.28843 6.83872 7.96143 6.01172 7.96143ZM11.5117 5.96143H10.9867C10.7512 3.60293 8.87022 1.72143 6.51172 1.48643V0.961426C6.51172 0.684926 6.28772 0.461426 6.01172 0.461426C5.73572 0.461426 5.51172 0.684926 5.51172 0.961426V1.48643C3.15322 1.72143 1.27172 3.60293 1.03672 5.96143H0.511719C0.235719 5.96143 0.0117188 6.18493 0.0117188 6.46143C0.0117188 6.73793 0.235719 6.96143 0.511719 6.96143H1.03672C1.27222 9.31993 3.15322 11.2014 5.51172 11.4364V11.9614C5.51172 12.2379 5.73572 12.4614 6.01172 12.4614C6.28772 12.4614 6.51172 12.2379 6.51172 11.9614V11.4364C8.87022 11.2009 10.7517 9.31993 10.9867 6.96143H11.5117C11.7877 6.96143 12.0117 6.73793 12.0117 6.46143C12.0117 6.18493 11.7877 5.96143 11.5117 5.96143ZM6.01172 10.4614C3.80622 10.4614 2.01172 8.66693 2.01172 6.46143C2.01172 4.25593 3.80622 2.46143 6.01172 2.46143C8.21722 2.46143 10.0117 4.25593 10.0117 6.46143C10.0117 8.66693 8.21722 10.4614 6.01172 10.4614Z" fill="#005F6A"/>
</g>
<defs>
<clipPath id="clip0_1_4709">
<rect width="12" height="12" fill="white" transform="translate(0.0117188 0.461426)"/>
</clipPath>
</defs>
</svg>
