<svg width="18" height="19" viewBox="0 0 18 19" fill="none" xmlns="http://www.w3.org/2000/svg">
<path d="M12.7221 8.24191C9.86322 8.24191 7.53626 10.5681 7.53626 13.4277C7.53626 16.2711 9.86322 18.5847 12.7221 18.5847C15.581 18.5847 17.9079 16.2585 17.9079 13.3989C17.9079 10.5555 15.581 8.24191 12.7221 8.24191ZM12.7221 17.103C10.6796 17.103 9.01793 15.4539 9.01793 13.4277C9.01793 11.3853 10.6796 9.72358 12.7221 9.72358C14.7646 9.72358 16.4263 11.3727 16.4263 13.3989C16.4263 15.4413 14.7646 17.103 12.7221 17.103ZM13.9867 13.6159C14.2764 13.9056 14.2764 14.3738 13.9867 14.6635C13.8422 14.8079 13.6526 14.8805 13.4629 14.8805C13.2733 14.8805 13.0836 14.8079 12.9392 14.6635L12.1983 13.9226C12.0591 13.7833 11.9813 13.5952 11.9813 13.3989V11.9172C11.9813 11.5082 12.3124 11.1764 12.7221 11.1764C13.1318 11.1764 13.4629 11.5082 13.4629 11.9172V13.0921L13.9867 13.6159ZM17.9079 5.99052V7.47219C17.9079 7.88113 17.5768 8.21302 17.1671 8.21302C16.7574 8.21302 16.4263 7.88113 16.4263 7.47219V5.99052C16.4263 4.76518 15.4291 3.76802 14.2038 3.76802H3.8321C2.60676 3.76802 1.6096 4.76518 1.6096 5.99052V6.73135H8.2771C8.68604 6.73135 9.01793 7.06325 9.01793 7.47219C9.01793 7.88113 8.68604 8.21302 8.2771 8.21302H1.6096V14.8805C1.6096 16.1059 2.60676 17.103 3.8321 17.103H6.79543C7.20437 17.103 7.53626 17.4349 7.53626 17.8439C7.53626 18.2528 7.20437 18.5847 6.79543 18.5847H3.8321C1.78962 18.5847 0.12793 16.923 0.12793 14.8805V5.99052C0.12793 3.94804 1.78962 2.28635 3.8321 2.28635H4.57293V1.54552C4.57293 1.13658 4.90482 0.804688 5.31376 0.804688C5.7227 0.804688 6.0546 1.13658 6.0546 1.54552V2.28635H11.9813V1.54552C11.9813 1.13658 12.3124 0.804688 12.7221 0.804688C13.1318 0.804688 13.4629 1.13658 13.4629 1.54552V2.28635H14.2038C16.2462 2.28635 17.9079 3.94804 17.9079 5.99052Z" fill="#005F6A"/>
</svg>
