<svg width="15" height="15" viewBox="0 0 15 15" fill="none" xmlns="http://www.w3.org/2000/svg">
<path d="M1.19531 10.918C1.19531 12.2642 2.29053 13.3594 3.63672 13.3594H10.4727C11.8188 13.3594 12.9141 12.2642 12.9141 10.918V6.52344H1.19531V10.918ZM2.66016 8.96484C2.66016 8.42627 3.09814 7.98828 3.63672 7.98828H4.61328C5.15186 7.98828 5.58984 8.42627 5.58984 8.96484V9.94141C5.58984 10.48 5.15186 10.918 4.61328 10.918H3.63672C3.09814 10.918 2.66016 10.48 2.66016 9.94141V8.96484ZM4.61377 9.94141H3.63672V8.96484H4.61328L4.61377 9.94141ZM12.9141 5.05859V5.54688H1.19531V5.05859C1.19531 3.7124 2.29053 2.61719 3.63672 2.61719H4.125V2.12891C4.125 1.85938 4.34375 1.64062 4.61328 1.64062C4.88281 1.64062 5.10156 1.85938 5.10156 2.12891V2.61719H9.00781V2.12891C9.00781 1.85938 9.22656 1.64062 9.49609 1.64062C9.76562 1.64062 9.98438 1.85938 9.98438 2.12891V2.61719H10.4727C11.8188 2.61719 12.9141 3.7124 12.9141 5.05859Z" fill="#00A8B5"/>
</svg>
