<svg width="24" height="24" viewBox="0 0 24 24" fill="none" xmlns="http://www.w3.org/2000/svg">
<path d="M19.8328 5.03749H17.1348C16.9328 4.05527 16.3984 3.17271 15.6216 2.53858C14.8448 1.90445 13.8731 1.55751 12.8703 1.55624L11.1297 1.55624C10.1269 1.55751 9.15523 1.90445 8.37841 2.53858C7.6016 3.17271 7.06715 4.05527 6.86516 5.03749H4.16719C3.93637 5.03749 3.715 5.12919 3.55178 5.2924C3.38857 5.45562 3.29688 5.67698 3.29688 5.90781C3.29688 6.13863 3.38857 6.35999 3.55178 6.52321C3.715 6.68642 3.93637 6.77812 4.16719 6.77812H5.0375V18.0922C5.03888 19.2459 5.49779 20.3519 6.31357 21.1677C7.12935 21.9834 8.23538 22.4424 9.38906 22.4437H14.6109C15.7646 22.4424 16.8707 21.9834 17.6864 21.1677C18.5022 20.3519 18.9611 19.2459 18.9625 18.0922V6.77812H19.8328C20.0636 6.77812 20.285 6.68642 20.4482 6.52321C20.6114 6.35999 20.7031 6.13863 20.7031 5.90781C20.7031 5.67698 20.6114 5.45562 20.4482 5.2924C20.285 5.12919 20.0636 5.03749 19.8328 5.03749ZM11.1297 3.29687H12.8703C13.4101 3.29753 13.9366 3.46517 14.3774 3.7768C14.8182 4.08843 15.1518 4.52879 15.3324 5.03749H8.66757C8.84823 4.52879 9.18184 4.08843 9.62264 3.7768C10.0634 3.46517 10.5899 3.29753 11.1297 3.29687ZM17.2219 18.0922C17.2219 18.7846 16.9468 19.4487 16.4571 19.9384C15.9675 20.428 15.3034 20.7031 14.6109 20.7031H9.38906C8.6966 20.7031 8.0325 20.428 7.54285 19.9384C7.0532 19.4487 6.77812 18.7846 6.77812 18.0922V6.77812H17.2219V18.0922Z" fill="#FF7361"/>
<path d="M10.2595 17.2219C10.4903 17.2219 10.7117 17.1302 10.8749 16.967C11.0381 16.8037 11.1298 16.5824 11.1298 16.3516V11.1297C11.1298 10.8989 11.0381 10.6775 10.8749 10.5143C10.7117 10.3511 10.4903 10.2594 10.2595 10.2594C10.0287 10.2594 9.80728 10.3511 9.64407 10.5143C9.48085 10.6775 9.38916 10.8989 9.38916 11.1297V16.3516C9.38916 16.5824 9.48085 16.8037 9.64407 16.967C9.80728 17.1302 10.0287 17.2219 10.2595 17.2219Z" fill="#FF7361"/>
<path d="M13.7404 17.2219C13.9713 17.2219 14.1926 17.1302 14.3558 16.967C14.519 16.8037 14.6107 16.5824 14.6107 16.3516V11.1297C14.6107 10.8989 14.519 10.6775 14.3558 10.5143C14.1926 10.3511 13.9713 10.2594 13.7404 10.2594C13.5096 10.2594 13.2882 10.3511 13.125 10.5143C12.9618 10.6775 12.8701 10.8989 12.8701 11.1297V16.3516C12.8701 16.5824 12.9618 16.8037 13.125 16.967C13.2882 17.1302 13.5096 17.2219 13.7404 17.2219Z" fill="#FF7361"/>
</svg>
