<svg width="16" height="16" viewBox="0 0 16 16" fill="none" xmlns="http://www.w3.org/2000/svg">
<g clip-path="url(#clip0_2910_129)">
<path d="M-0.1875 11.8442C-0.1875 12.293 -0.000198919 12.7234 0.333199 13.0408C0.666597 13.3582 1.11878 13.5365 1.59028 13.5365H14.0347C14.5062 13.5365 14.9584 13.3582 15.2918 13.0408C15.6252 12.7234 15.8125 12.293 15.8125 11.8442V10.1519H-0.1875V11.8442Z" fill="#FFCD05"/>
<path d="M-0.1875 6.34424H15.8125V10.1519H-0.1875V6.34424Z" fill="#ED1F24"/>
<path d="M14.0347 2.53662H1.59028C1.11878 2.53662 0.666597 2.71492 0.333199 3.03229C-0.000198919 3.34966 -0.1875 3.7801 -0.1875 4.22893L-0.1875 6.34431H15.8125V4.22893C15.8125 3.7801 15.6252 3.34966 15.2918 3.03229C14.9584 2.71492 14.5062 2.53662 14.0347 2.53662Z" fill="#141414"/>
</g>
<defs>
<clipPath id="clip0_2910_129">
<rect y="2.5" width="16" height="11" rx="2" fill="white"/>
</clipPath>
</defs>
</svg>
