<svg width="21" height="21" viewBox="0 0 21 21" fill="none" xmlns="http://www.w3.org/2000/svg">
<path d="M3.52482 14.124C3.36482 14.124 3.20514 14.0631 3.08295 13.9409C2.83889 13.6968 2.83889 13.3012 3.08295 13.0572L12.8498 3.29029C13.0936 3.04622 13.4895 3.04622 13.7336 3.29029C13.9776 3.53435 13.9776 3.92997 13.7336 4.17404L3.9667 13.9409C3.84482 14.0628 3.68482 14.124 3.52482 14.124Z" fill="#D1D1D1"/>
<path d="M2.5602 18.625C2.51676 18.625 2.47269 18.6203 2.42863 18.611C2.09113 18.5385 1.87613 18.2063 1.94863 17.8688L2.91426 13.3678C2.98676 13.0303 3.32051 12.816 3.65644 12.8878C3.99394 12.9603 4.20895 13.2925 4.13645 13.63L3.17082 18.131C3.10801 18.4244 2.84863 18.625 2.5602 18.625Z" fill="#D1D1D1"/>
<path d="M7.06047 17.6594C6.90047 17.6594 6.74078 17.5984 6.61859 17.4762C6.37453 17.2322 6.37453 16.8366 6.61859 16.5925L16.3855 6.82593C16.6292 6.58187 17.0252 6.58187 17.2692 6.82593C17.5133 7.06999 17.5133 7.46562 17.2692 7.70968L7.50266 17.4762C7.38047 17.5984 7.22047 17.6594 7.06047 17.6594Z" fill="#D1D1D1"/>
<path d="M2.55868 18.625C2.27024 18.625 2.01118 18.4244 1.94805 18.1309C1.87586 17.7934 2.09055 17.4613 2.42805 17.3888L6.92899 16.4231C7.2668 16.3516 7.59899 16.5659 7.67118 16.9031C7.74336 17.2406 7.52868 17.5728 7.19118 17.6453L2.69024 18.6109C2.64618 18.6206 2.60211 18.625 2.55868 18.625Z" fill="#D1D1D1"/>
<path d="M15.0592 9.6603C14.8992 9.6603 14.7392 9.59936 14.6173 9.47717L11.082 5.94186C10.8379 5.6978 10.8379 5.30217 11.082 5.05811C11.3257 4.81405 11.722 4.81405 11.9657 5.05811L15.501 8.59342C15.7451 8.83748 15.7451 9.23311 15.501 9.47717C15.3792 9.59936 15.2192 9.6603 15.0592 9.6603Z" fill="#D1D1D1"/>
<path d="M16.8274 7.89283C16.6674 7.89283 16.5074 7.83189 16.3852 7.7097C16.1411 7.46564 16.1411 7.07002 16.3852 6.82564C16.733 6.47783 16.9246 6.00689 16.9246 5.50002C16.9246 4.99314 16.733 4.5222 16.3852 4.17439C16.0371 3.82627 15.5661 3.6347 15.0592 3.6347C14.5524 3.6347 14.0814 3.82627 13.7336 4.17439C13.4899 4.41845 13.0942 4.41877 12.8496 4.17439C12.6055 3.93033 12.6055 3.5347 12.8496 3.29033C13.4333 2.70627 14.218 2.3847 15.0592 2.3847C15.9002 2.3847 16.6852 2.70627 17.2689 3.29033C17.853 3.87408 18.1746 4.65877 18.1746 5.50002C18.1746 6.34127 17.853 7.12595 17.2689 7.7097C17.1474 7.83158 16.9874 7.89283 16.8274 7.89283Z" fill="#D1D1D1"/>
</svg>
