<svg width="29" height="29" viewBox="0 0 29 29" fill="none" xmlns="http://www.w3.org/2000/svg">
<rect x="0.71875" width="28.2812" height="28.2812" rx="14.1406" fill="#16A9B7"/>
<path d="M8.74418 18.1639C8.32128 18.5867 8.08362 19.1601 8.0835 19.7581V20.9154H9.24082C9.8388 20.9153 10.4122 20.6776 10.835 20.2547L18.3567 12.733L16.2659 10.6422L8.74418 18.1639Z" fill="white"/>
<path d="M21.1362 7.87237C20.9989 7.73495 20.8359 7.62594 20.6565 7.55156C20.477 7.47719 20.2847 7.4389 20.0905 7.4389C19.8962 7.4389 19.7039 7.47719 19.5245 7.55156C19.345 7.62594 19.182 7.73495 19.0448 7.87237L17.0684 9.84934L19.1592 11.9402L21.1362 9.96377C21.2736 9.8265 21.3826 9.66349 21.457 9.48406C21.5314 9.30463 21.5696 9.1123 21.5696 8.91807C21.5696 8.72384 21.5314 8.53151 21.457 8.35208C21.3826 8.17265 21.2736 8.00964 21.1362 7.87237Z" fill="white"/>
</svg>
