<svg width="16" height="16" viewBox="0 0 16 16" fill="none" xmlns="http://www.w3.org/2000/svg">
<g clip-path="url(#clip0_2910_171)">
<mask id="mask0_2910_171" style="mask-type:luminance" maskUnits="userSpaceOnUse" x="0" y="2" width="16" height="12">
<path d="M0 2.5H16V13.5H0V2.5Z" fill="white"/>
</mask>
<g mask="url(#mask0_2910_171)">
<mask id="mask1_2910_171" style="mask-type:luminance" maskUnits="userSpaceOnUse" x="0" y="2" width="16" height="12">
<path d="M14.5455 2.5H1.45455C0.651222 2.5 0 3.11561 0 3.875V12.125C0 12.8844 0.651222 13.5 1.45455 13.5H14.5455C15.3488 13.5 16 12.8844 16 12.125V3.875C16 3.11561 15.3488 2.5 14.5455 2.5Z" fill="white"/>
</mask>
<g mask="url(#mask1_2910_171)">
<path d="M14.5455 2.5H1.45455C0.651222 2.5 0 3.11561 0 3.875V12.125C0 12.8844 0.651222 13.5 1.45455 13.5H14.5455C15.3488 13.5 16 12.8844 16 12.125V3.875C16 3.11561 15.3488 2.5 14.5455 2.5Z" fill="white"/>
<path fill-rule="evenodd" clip-rule="evenodd" d="M0 2.5H6.85714V7.63334H0V2.5Z" fill="#1A47B8"/>
<path fill-rule="evenodd" clip-rule="evenodd" d="M6.85714 2.5V3.23334H16V2.5H6.85714ZM6.85714 3.96666V4.7H16V3.96666H6.85714ZM6.85714 5.43334V6.16666H16V5.43334H6.85714ZM6.85714 6.9V7.63334H16V6.9H6.85714ZM0 8.36666V9.1H16V8.36666H0ZM0 9.83336V10.5666H16V9.83336H0ZM0 11.3V12.0334H16V11.3H0ZM0 12.7666V13.5H16V12.7666H0Z" fill="#F93939"/>
<path fill-rule="evenodd" clip-rule="evenodd" d="M0.761719 3.2334V3.96673H1.52362V3.2334H0.761719ZM2.28553 3.2334V3.96673H3.04743V3.2334H2.28553ZM3.80933 3.2334V3.96673H4.57124V3.2334H3.80933ZM5.33314 3.2334V3.96673H6.09505V3.2334H5.33314ZM4.57124 3.96673V4.70006H5.33314V3.96673H4.57124ZM3.04743 3.96673V4.70006H3.80933V3.96673H3.04743ZM1.52362 3.96673V4.70006H2.28553V3.96673H1.52362ZM0.761719 4.70006V5.4334H1.52362V4.70006H0.761719ZM2.28553 4.70006V5.4334H3.04743V4.70006H2.28553ZM3.80933 4.70006V5.4334H4.57124V4.70006H3.80933ZM5.33314 4.70006V5.4334H6.09505V4.70006H5.33314ZM0.761719 6.16673V6.90006H1.52362V6.16673H0.761719ZM2.28553 6.16673V6.90006H3.04743V6.16673H2.28553ZM3.80933 6.16673V6.90006H4.57124V6.16673H3.80933ZM5.33314 6.16673V6.90006H6.09505V6.16673H5.33314ZM4.57124 5.4334V6.16673H5.33314V5.4334H4.57124ZM3.04743 5.4334V6.16673H3.80933V5.4334H3.04743ZM1.52362 5.4334V6.16673H2.28553V5.4334H1.52362Z" fill="white"/>
</g>
</g>
</g>
<defs>
<clipPath id="clip0_2910_171">
<rect width="16" height="11" fill="white" transform="translate(0 2.5)"/>
</clipPath>
</defs>
</svg>
