<svg width="15" height="15" viewBox="0 0 15 15" fill="none" xmlns="http://www.w3.org/2000/svg">
<g clip-path="url(#clip0_428_3703)">
<path d="M12.2215 5.16666C12.2222 4.26841 11.9637 3.38905 11.4769 2.63413C10.9902 1.87921 10.2959 1.28081 9.47739 0.910757C8.65891 0.540706 7.75103 0.41473 6.86272 0.547952C5.97441 0.681174 5.14342 1.06793 4.46951 1.6618C3.79559 2.25567 3.30739 3.03141 3.0635 3.89591C2.81961 4.76041 2.83039 5.67693 3.09456 6.53545C3.35873 7.39397 3.86505 8.15801 4.55276 8.73585C5.24046 9.3137 6.08032 9.68079 6.97152 9.79307V11.5833H5.80485C5.65014 11.5833 5.50177 11.6448 5.39237 11.7542C5.28297 11.8636 5.22152 12.0119 5.22152 12.1667C5.22152 12.3214 5.28297 12.4697 5.39237 12.5791C5.50177 12.6885 5.65014 12.75 5.80485 12.75H6.97152V13.9167C6.97152 14.0714 7.03297 14.2197 7.14237 14.3291C7.25177 14.4385 7.40014 14.5 7.55485 14.5C7.70956 14.5 7.85793 14.4385 7.96733 14.3291C8.07672 14.2197 8.13818 14.0714 8.13818 13.9167V12.75H9.30485C9.45956 12.75 9.60793 12.6885 9.71733 12.5791C9.82672 12.4697 9.88818 12.3214 9.88818 12.1667C9.88818 12.0119 9.82672 11.8636 9.71733 11.7542C9.60793 11.6448 9.45956 11.5833 9.30485 11.5833H8.13818V9.79307C9.26489 9.65011 10.3009 9.10157 11.0525 8.25006C11.804 7.39855 12.2196 6.3024 12.2215 5.16666Z" fill="#00A8B5"/>
</g>
<defs>
<clipPath id="clip0_428_3703">
<rect width="14" height="14" fill="white" transform="translate(0.554688 0.5)"/>
</clipPath>
</defs>
</svg>
