<svg width="21" height="20" viewBox="0 0 21 20" fill="none" xmlns="http://www.w3.org/2000/svg">
    <g clip-path="url(#clip0_2_12287)">
        <path
            d="M14.3776 8.34017C11.1609 8.34017 8.54427 10.9568 8.54427 14.1735C8.54427 17.3902 11.1609 20.0068 14.3776 20.0068C17.5943 20.0068 20.2109 17.3902 20.2109 14.1735C20.2109 10.9568 17.5943 8.34017 14.3776 8.34017ZM14.3776 18.3402C12.0776 18.3402 10.2109 16.4735 10.2109 14.1735C10.2109 11.8735 12.0776 10.0068 14.3776 10.0068C16.6776 10.0068 18.5443 11.8735 18.5443 14.1735C18.5443 16.4735 16.6776 18.3402 14.3776 18.3402ZM15.6276 12.0902C15.6276 12.7818 15.0693 13.3402 14.3776 13.3402C13.6859 13.3402 13.1276 12.7818 13.1276 12.0902C13.1276 11.3985 13.6859 10.8402 14.3776 10.8402C15.0693 10.8402 15.6276 11.3985 15.6276 12.0902ZM15.2109 15.0068V16.6735C15.2109 17.1318 14.8359 17.5068 14.3776 17.5068C13.9193 17.5068 13.5443 17.1318 13.5443 16.6735V15.0068C13.5443 14.5485 13.9193 14.1735 14.3776 14.1735C14.8359 14.1735 15.2109 14.5485 15.2109 15.0068ZM7.71094 17.5068C7.71094 17.9652 7.33594 18.3402 6.8776 18.3402H4.3776C2.0776 18.3402 0.210938 16.4735 0.210938 14.1735V4.1735C0.210938 1.8735 2.0776 0.00683594 4.3776 0.00683594H9.1776C10.0526 0.00683594 10.9109 0.365169 11.5359 0.981836L14.2359 3.68184C14.7943 4.24017 15.1359 4.98184 15.2026 5.76517C15.2359 6.2235 14.8943 6.6235 14.4359 6.66517C14.4109 6.66517 14.3943 6.66517 14.3693 6.66517C13.9359 6.66517 13.5776 6.33184 13.5359 5.8985C13.5359 5.8735 13.5359 5.85684 13.5359 5.83184H11.0526C10.1359 5.83184 9.38594 5.08184 9.38594 4.16517V1.69017C9.31927 1.69017 9.2526 1.6735 9.18594 1.6735H4.3776C3.0026 1.6735 1.8776 2.7985 1.8776 4.1735V14.1735C1.8776 15.5485 3.0026 16.6735 4.3776 16.6735H6.8776C7.33594 16.6735 7.71094 17.0485 7.71094 17.5068Z"
            fill="#19C7D7" />
    </g>
    <defs>
        <clipPath id="clip0_2_12287">
            <rect width="20" height="20" fill="white" transform="translate(0.210938 0.00683594)" />
        </clipPath>
    </defs>
</svg>
