<svg width="19" height="18" viewBox="0 0 19 18" fill="none" xmlns="http://www.w3.org/2000/svg">
<g id="filter (2) 1" clip-path="url(#clip0_380_5225)">
<path id="Vector" d="M10.5547 18C10.3924 18 10.2345 17.9474 10.1047 17.85L7.10467 15.6C7.01153 15.5301 6.93592 15.4396 6.88385 15.3354C6.83178 15.2313 6.80467 15.1164 6.80467 15V10.785L1.54267 4.86525C1.16896 4.44366 0.924957 3.92311 0.839983 3.36618C0.755008 2.80924 0.832681 2.23961 1.06367 1.72576C1.29465 1.21191 1.66912 0.775694 2.14206 0.469549C2.615 0.163405 3.16629 0.000355814 3.72967 0L14.3797 0C14.943 0.000660788 15.4942 0.163979 15.9669 0.47033C16.4397 0.776681 16.8139 1.21303 17.0446 1.72694C17.2754 2.24085 17.3528 2.81046 17.2676 3.36731C17.1824 3.92416 16.9382 4.44457 16.5644 4.866L11.3047 10.785V17.25C11.3047 17.4489 11.2257 17.6397 11.085 17.7803C10.9444 17.921 10.7536 18 10.5547 18ZM8.30467 14.625L9.80467 15.75V10.5C9.80482 10.3164 9.87234 10.1392 9.99442 10.002L15.4454 3.86925C15.6272 3.66381 15.7458 3.41028 15.787 3.13909C15.8282 2.8679 15.7903 2.59058 15.6777 2.34042C15.5652 2.09026 15.3829 1.87789 15.1526 1.72882C14.9224 1.57974 14.654 1.50029 14.3797 1.5H3.72967C3.45551 1.50042 3.18729 1.57991 2.95718 1.72895C2.72706 1.87799 2.54483 2.09025 2.43233 2.34026C2.31983 2.59028 2.28184 2.86744 2.32292 3.13851C2.364 3.40958 2.4824 3.66304 2.66392 3.8685L8.11567 10.002C8.23748 10.1393 8.30473 10.3165 8.30467 10.5V14.625Z" fill="#005F6A"/>
</g>
<defs>
<clipPath id="clip0_380_5225">
<rect width="18" height="18" fill="white" transform="translate(0.0546875)"/>
</clipPath>
</defs>
</svg>
