<svg width="21" height="21" viewBox="0 0 21 21" fill="none" xmlns="http://www.w3.org/2000/svg">
<g clip-path="url(#clip0_159_4243)">
<path d="M19.224 5.44978V2.34644C19.224 1.88644 18.8515 1.51311 18.3906 1.51311C17.9298 1.51311 17.5573 1.88644 17.5573 2.34644V4.31811L13.2215 1.39228C11.8056 0.437275 9.97563 0.437275 8.55979 1.39228L2.72646 5.32894C1.57729 6.10478 0.890625 7.39561 0.890625 8.78311V16.5131C0.890625 18.8106 2.75979 20.6798 5.05729 20.6798H7.55729C8.01812 20.6798 8.39062 20.3064 8.39062 19.8464V13.1798C8.39062 12.7206 8.76396 12.3464 9.22396 12.3464H12.5573C13.0173 12.3464 13.3906 12.7206 13.3906 13.1798V19.8464C13.3906 20.3064 13.7631 20.6798 14.224 20.6798H16.724C19.0215 20.6798 20.8906 18.8106 20.8906 16.5131V8.78311C20.8906 7.46561 20.2706 6.23478 19.224 5.44978ZM19.224 16.5131C19.224 17.8914 18.1023 19.0131 16.724 19.0131H15.0573V13.1798C15.0573 11.8014 13.9356 10.6798 12.5573 10.6798H9.22396C7.84562 10.6798 6.72396 11.8014 6.72396 13.1798V19.0131H5.05729C3.67896 19.0131 2.55729 17.8914 2.55729 16.5131V8.78311C2.55729 7.95061 2.96896 7.17561 3.65896 6.71061L9.49229 2.77394C10.3423 2.20061 11.439 2.20061 12.2881 2.77394L18.1215 6.71061C18.8115 7.17561 19.2231 7.95061 19.2231 8.78311L19.224 16.5131Z" fill="#E97D32"/>
</g>
<defs>
<clipPath id="clip0_159_4243">
<rect width="20" height="20" fill="white" transform="translate(0.890625 0.679688)"/>
</clipPath>
</defs>
</svg>
