<svg width="21" height="21" viewBox="0 0 21 21" fill="none" xmlns="http://www.w3.org/2000/svg">
<g clip-path="url(#clip0_176_2524)">
<path d="M19.2318 5.27V2.16666C19.2318 1.70666 18.8593 1.33333 18.3984 1.33333C17.9376 1.33333 17.5651 1.70666 17.5651 2.16666V4.13833L13.2293 1.2125C11.8134 0.257496 9.98344 0.257496 8.5676 1.2125L2.73427 5.14916C1.5851 5.925 0.898438 7.21583 0.898438 8.60333V16.3333C0.898438 18.6308 2.7676 20.5 5.0651 20.5H7.5651C8.02594 20.5 8.39844 20.1267 8.39844 19.6667V13C8.39844 12.5408 8.77177 12.1667 9.23177 12.1667H12.5651C13.0251 12.1667 13.3984 12.5408 13.3984 13V19.6667C13.3984 20.1267 13.7709 20.5 14.2318 20.5H16.7318C19.0293 20.5 20.8984 18.6308 20.8984 16.3333V8.60333C20.8984 7.28583 20.2784 6.055 19.2318 5.27ZM19.2318 16.3333C19.2318 17.7117 18.1101 18.8333 16.7318 18.8333H15.0651V13C15.0651 11.6217 13.9434 10.5 12.5651 10.5H9.23177C7.85344 10.5 6.73177 11.6217 6.73177 13V18.8333H5.0651C3.68677 18.8333 2.5651 17.7117 2.5651 16.3333V8.60333C2.5651 7.77083 2.97677 6.99583 3.66677 6.53083L9.5001 2.59416C10.3501 2.02083 11.4468 2.02083 12.2959 2.59416L18.1293 6.53083C18.8193 6.99583 19.2309 7.77083 19.2309 8.60333L19.2318 16.3333Z" fill="#185E7C"/>
</g>
<defs>
<clipPath id="clip0_176_2524">
<rect width="20" height="20" fill="white" transform="translate(0.898438 0.5)"/>
</clipPath>
</defs>
</svg>
