<svg width="13" height="11" viewBox="0 0 13 11" fill="none" xmlns="http://www.w3.org/2000/svg">
    <path
        d="M9.71094 0H2.71094C1.33244 0 0.210938 1.1215 0.210938 2.5V8.5C0.210938 9.8785 1.33244 11 2.71094 11H9.71094C11.0894 11 12.2109 9.8785 12.2109 8.5V2.5C12.2109 1.1215 11.0894 0 9.71094 0ZM11.2109 8.5C11.2109 9.327 10.5379 10 9.71094 10H2.71094C1.88394 10 1.21094 9.327 1.21094 8.5V2.5C1.21094 1.673 1.88394 1 2.71094 1H9.71094C10.5379 1 11.2109 1.673 11.2109 2.5V8.5ZM9.71094 3C9.71094 3.276 9.48694 3.5 9.21094 3.5H5.71094C5.43494 3.5 5.21094 3.276 5.21094 3C5.21094 2.724 5.43494 2.5 5.71094 2.5H9.21094C9.48694 2.5 9.71094 2.724 9.71094 3ZM4.21094 3C4.21094 3.414 3.87494 3.75 3.46094 3.75C3.04694 3.75 2.71094 3.414 2.71094 3C2.71094 2.586 3.04694 2.25 3.46094 2.25C3.87494 2.25 4.21094 2.586 4.21094 3ZM9.71094 5.5C9.71094 5.776 9.48694 6 9.21094 6H5.71094C5.43494 6 5.21094 5.776 5.21094 5.5C5.21094 5.224 5.43494 5 5.71094 5H9.21094C9.48694 5 9.71094 5.224 9.71094 5.5ZM4.21094 5.5C4.21094 5.914 3.87494 6.25 3.46094 6.25C3.04694 6.25 2.71094 5.914 2.71094 5.5C2.71094 5.086 3.04694 4.75 3.46094 4.75C3.87494 4.75 4.21094 5.086 4.21094 5.5ZM9.71094 8C9.71094 8.276 9.48694 8.5 9.21094 8.5H5.71094C5.43494 8.5 5.21094 8.276 5.21094 8C5.21094 7.724 5.43494 7.5 5.71094 7.5H9.21094C9.48694 7.5 9.71094 7.724 9.71094 8ZM4.21094 8C4.21094 8.414 3.87494 8.75 3.46094 8.75C3.04694 8.75 2.71094 8.414 2.71094 8C2.71094 7.586 3.04694 7.25 3.46094 7.25C3.87494 7.25 4.21094 7.586 4.21094 8Z"
        fill="white" />
</svg>
