<svg width="13" height="20" viewBox="0 0 13 20" fill="none" xmlns="http://www.w3.org/2000/svg">
<g id="Group">
<path id="Vector" d="M6.75725 9.56488C8.56138 9.56488 10.0292 8.0973 10.0292 6.29341C10.0292 4.48952 8.56138 3.02197 6.75725 3.02197C4.95313 3.02197 3.48535 4.48952 3.48535 6.29341C3.48535 8.0973 4.95313 9.56488 6.75725 9.56488ZM6.75725 4.1913C7.91652 4.1913 8.85967 5.13433 8.85967 6.29341C8.85967 7.45252 7.91656 8.39555 6.75725 8.39555C5.59795 8.39555 4.65483 7.45252 4.65483 6.29341C4.65483 5.13433 5.59798 4.1913 6.75725 4.1913Z" fill="#00A8B5"/>
<path id="Vector_2" d="M3.19036 12.1677C4.07664 13.3675 3.72057 12.9009 6.27336 16.5456C6.50538 16.8782 6.99879 16.8797 7.23214 16.5461C9.79646 12.8841 9.44363 13.3479 10.3155 12.1677C11.1986 10.972 12.1119 9.73564 12.6124 8.28681C13.3367 6.18949 13.0236 4.11432 11.7308 2.44352C11.7308 2.44352 11.7308 2.44348 11.7308 2.44348C10.5465 0.913445 8.68565 0 6.75292 0C4.82019 0 2.95931 0.913445 1.77506 2.44356C0.482269 4.11436 0.16916 6.18957 0.893538 8.28688C1.39392 9.73568 2.30721 10.9721 3.19036 12.1677ZM2.69996 3.15913C3.66432 1.9132 5.17946 1.16933 6.75292 1.16933C8.32638 1.16933 9.84153 1.9132 10.8059 3.15913L10.8058 3.15909C11.8493 4.50758 12.0982 6.19312 11.5069 7.90516C11.0649 9.18489 10.2057 10.3481 9.37475 11.473C8.72779 12.3489 8.92142 12.081 6.75292 15.1894C4.58669 12.0841 4.77786 12.3486 4.1311 11.473C3.30018 10.3481 2.44096 9.18485 1.99893 7.90516C1.40764 6.19308 1.65659 4.50758 2.69996 3.15913Z" fill="#00A8B5"/>
<path id="Vector_3" d="M3.67841 14.7037C3.50595 14.4307 3.14482 14.3491 2.87178 14.5216L1.20917 15.5717C0.846469 15.8007 0.846119 16.331 1.20917 16.5603L6.44845 19.8695C6.63919 19.99 6.88229 19.9899 7.07299 19.8695L12.3123 16.5603C12.675 16.3312 12.6753 15.801 12.3123 15.5717L10.6497 14.5216C10.3766 14.3491 10.0155 14.4307 9.84303 14.7037C9.67053 14.9767 9.75209 15.3377 10.0251 15.5102L10.9051 16.066L6.7607 18.6836L2.61633 16.066L3.49632 15.5102C3.76936 15.3378 3.85087 14.9767 3.67841 14.7037Z" fill="#00A8B5"/>
</g>
</svg>
