<svg width="17" height="17" viewBox="0 0 17 17" fill="none" xmlns="http://www.w3.org/2000/svg">
<g clip-path="url(#clip0_29_2688)">
<path d="M12.9962 2.48207C11.718 1.20391 10.0186 0.5 8.21105 0.5C6.40348 0.5 4.70404 1.20391 3.42591 2.48207C2.14776 3.76026 1.44385 5.45963 1.44385 7.26717C1.44385 10.9238 4.90129 13.9652 6.75876 15.5992C7.01689 15.8262 7.2398 16.0223 7.41739 16.1882C7.63989 16.396 7.92549 16.5 8.21102 16.5C8.49661 16.5 8.78214 16.396 9.00468 16.1882C9.18227 16.0223 9.40518 15.8262 9.6633 15.5992C11.5208 13.9652 14.9782 10.9238 14.9782 7.26717C14.9782 5.45963 14.2743 3.76026 12.9962 2.48207ZM9.04424 14.8955C8.78046 15.1275 8.55267 15.3279 8.36486 15.5033C8.27858 15.5838 8.14346 15.5839 8.05714 15.5033C7.86936 15.3278 7.64155 15.1275 7.37777 14.8954C5.63151 13.3593 2.38104 10.5 2.38104 7.2672C2.38104 4.05257 4.99632 1.43728 8.21099 1.43728C11.4256 1.43728 14.0409 4.05257 14.0409 7.2672C14.0409 10.5 10.7905 13.3593 9.04424 14.8955Z" fill="#888888"/>
<path d="M8.21123 4.0293C6.56682 4.0293 5.229 5.36708 5.229 7.01149C5.229 8.6559 6.56682 9.99368 8.21123 9.99368C9.85564 9.99368 11.1934 8.6559 11.1934 7.01149C11.1934 5.36708 9.85564 4.0293 8.21123 4.0293ZM8.21123 9.0564C7.08363 9.0564 6.16626 8.13902 6.16626 7.01146C6.16626 5.88389 7.08363 4.96652 8.21123 4.96652C9.33882 4.96652 10.2562 5.88389 10.2562 7.01146C10.2562 8.13902 9.33882 9.0564 8.21123 9.0564Z" fill="#888888"/>
</g>
<defs>
<clipPath id="clip0_29_2688">
<rect width="16" height="16" fill="white" transform="translate(0.210938 0.5)"/>
</clipPath>
</defs>
</svg>
