<svg width="15" height="17" viewBox="0 0 15 17" fill="none" xmlns="http://www.w3.org/2000/svg">
    <path
        d="M7.21068 16.5C7.01809 16.5 6.8366 16.4678 6.66623 16.4034C6.49586 16.3389 6.3292 16.2423 6.16623 16.1134C5.57364 15.6123 4.9329 15.0253 4.24401 14.3523C3.55512 13.6794 2.91438 12.9564 2.32179 12.1832C1.7292 11.4101 1.24031 10.6047 0.855122 9.76711C0.469936 8.92953 0.277344 8.09553 0.277344 7.2651C0.277344 5.34653 0.936603 3.73937 2.25512 2.44362C3.57364 1.14787 5.22549 0.5 7.21068 0.5C9.18105 0.5 10.8292 1.14787 12.1551 2.44362C13.481 3.73937 14.144 5.34653 14.144 7.2651C14.144 8.09553 13.9477 8.93311 13.5551 9.77785C13.1625 10.6226 12.6736 11.4315 12.0885 12.2047C11.5033 12.9779 10.8662 13.6973 10.1773 14.3631C9.48846 15.0289 8.84772 15.6123 8.25512 16.1134C8.09216 16.2423 7.92549 16.3389 7.75512 16.4034C7.58475 16.4678 7.40327 16.5 7.21068 16.5ZM7.21068 8.74698C7.65512 8.74698 8.0329 8.59664 8.34401 8.29597C8.65512 7.9953 8.81068 7.6302 8.81068 7.20067C8.81068 6.77114 8.65512 6.40604 8.34401 6.10537C8.0329 5.8047 7.65512 5.65436 7.21068 5.65436C6.76623 5.65436 6.38846 5.8047 6.07734 6.10537C5.76623 6.40604 5.61068 6.77114 5.61068 7.20067C5.61068 7.6302 5.76623 7.9953 6.07734 8.29597C6.38846 8.59664 6.76623 8.74698 7.21068 8.74698Z"
        fill="#1D5F6D" />
</svg>
