<svg width="25" height="25" viewBox="0 0 25 25" fill="none" xmlns="http://www.w3.org/2000/svg">
<g clip-path="url(#clip0_176_2489)">
<path d="M19.0547 8.924V7.5C19.0547 5.64348 18.3172 3.86301 17.0044 2.55025C15.6917 1.2375 13.9112 0.5 12.0547 0.5C10.1982 0.5 8.41769 1.2375 7.10494 2.55025C5.79219 3.86301 5.05469 5.64348 5.05469 7.5V8.924C4.16405 9.31271 3.40598 9.95252 2.87319 10.7652C2.34039 11.5779 2.05597 12.5282 2.05469 13.5V19.5C2.05628 20.8256 2.58357 22.0964 3.52091 23.0338C4.45825 23.9711 5.72909 24.4984 7.05469 24.5H17.0547C18.3803 24.4984 19.6511 23.9711 20.5885 23.0338C21.5258 22.0964 22.0531 20.8256 22.0547 19.5V13.5C22.0534 12.5282 21.769 11.5779 21.2362 10.7652C20.7034 9.95252 19.9453 9.31271 19.0547 8.924ZM7.05469 7.5C7.05469 6.17392 7.58147 4.90215 8.51915 3.96447C9.45684 3.02678 10.7286 2.5 12.0547 2.5C13.3808 2.5 14.6525 3.02678 15.5902 3.96447C16.5279 4.90215 17.0547 6.17392 17.0547 7.5V8.5H7.05469V7.5ZM20.0547 19.5C20.0547 20.2956 19.7386 21.0587 19.176 21.6213C18.6134 22.1839 17.8503 22.5 17.0547 22.5H7.05469C6.25904 22.5 5.49598 22.1839 4.93337 21.6213C4.37076 21.0587 4.05469 20.2956 4.05469 19.5V13.5C4.05469 12.7044 4.37076 11.9413 4.93337 11.3787C5.49598 10.8161 6.25904 10.5 7.05469 10.5H17.0547C17.8503 10.5 18.6134 10.8161 19.176 11.3787C19.7386 11.9413 20.0547 12.7044 20.0547 13.5V19.5Z" fill="#00A8B5"/>
<path d="M12.0547 14.5C11.7895 14.5 11.5351 14.6054 11.3476 14.7929C11.16 14.9804 11.0547 15.2348 11.0547 15.5V17.5C11.0547 17.7652 11.16 18.0196 11.3476 18.2071C11.5351 18.3946 11.7895 18.5 12.0547 18.5C12.3199 18.5 12.5743 18.3946 12.7618 18.2071C12.9493 18.0196 13.0547 17.7652 13.0547 17.5V15.5C13.0547 15.2348 12.9493 14.9804 12.7618 14.7929C12.5743 14.6054 12.3199 14.5 12.0547 14.5Z" fill="#00A8B5"/>
</g>
<defs>
<clipPath id="clip0_176_2489">
<rect width="24" height="24" fill="white" transform="translate(0.0546875 0.5)"/>
</clipPath>
</defs>
</svg>
