<svg width="24" height="24" viewBox="0 0 24 24" fill="none" xmlns="http://www.w3.org/2000/svg">
<path d="M11.5392 14.5098C11.3173 14.5098 11.1045 14.5979 10.9476 14.7548C10.7907 14.9117 10.7026 15.1245 10.7026 15.3464V17.8561C10.7026 18.5218 10.4382 19.1601 9.96748 19.6308C9.49681 20.1015 8.85844 20.3659 8.19281 20.3659H6.12142C5.45579 20.3659 4.81742 20.1015 4.34675 19.6308C3.87607 19.1601 3.61165 18.5218 3.61165 17.8561V6.14388C3.61165 5.47825 3.87607 4.83988 4.34675 4.36921C4.81742 3.89854 5.45579 3.63411 6.12142 3.63411H8.19281C8.85844 3.63411 9.49681 3.89854 9.96748 4.36921C10.4382 4.83988 10.7026 5.47825 10.7026 6.14388V8.65365C10.7026 8.87552 10.7907 9.08831 10.9476 9.2452C11.1045 9.40209 11.3173 9.49023 11.5392 9.49023C11.761 9.49023 11.9738 9.40209 12.1307 9.2452C12.2876 9.08831 12.3758 8.87552 12.3758 8.65365V6.14388C12.3744 5.0349 11.9333 3.97173 11.1491 3.18756C10.365 2.40339 9.30179 1.96227 8.19281 1.96094H6.12142C5.01244 1.96227 3.94927 2.40339 3.1651 3.18756C2.38093 3.97173 1.9398 5.0349 1.93848 6.14388L1.93848 17.8561C1.9398 18.9651 2.38093 20.0283 3.1651 20.8124C3.94927 21.5966 5.01244 22.0377 6.12142 22.0391H8.19281C9.30179 22.0377 10.365 21.5966 11.1491 20.8124C11.9333 20.0283 12.3744 18.9651 12.3758 17.8561V15.3464C12.3758 15.1245 12.2876 14.9117 12.1307 14.7548C11.9738 14.5979 11.761 14.5098 11.5392 14.5098Z" fill="#E97D32"/>
<path d="M21.0699 10.2224L17.2333 6.38585C17.1561 6.30595 17.0638 6.24221 16.9617 6.19837C16.8597 6.15452 16.7499 6.13144 16.6388 6.13048C16.5277 6.12951 16.4176 6.15068 16.3148 6.19275C16.2119 6.23481 16.1185 6.29693 16.04 6.37548C15.9614 6.45403 15.8993 6.54743 15.8573 6.65025C15.8152 6.75306 15.794 6.86322 15.795 6.97431C15.796 7.08539 15.819 7.19516 15.8629 7.29723C15.9067 7.3993 15.9705 7.49161 16.0504 7.56878L19.6167 11.1352L6.95915 11.1603C6.73727 11.1603 6.52448 11.2484 6.36759 11.4053C6.2107 11.5622 6.12256 11.775 6.12256 11.9968C6.12256 12.2187 6.2107 12.4315 6.36759 12.5884C6.52448 12.7453 6.73727 12.8334 6.95915 12.8334L19.6653 12.8083L16.0487 16.4249C15.9688 16.5021 15.905 16.5944 15.8612 16.6965C15.8174 16.7985 15.7943 16.9083 15.7933 17.0194C15.7923 17.1305 15.8135 17.2406 15.8556 17.3434C15.8976 17.4463 15.9598 17.5397 16.0383 17.6182C16.1169 17.6968 16.2103 17.7589 16.3131 17.801C16.4159 17.843 16.5261 17.8642 16.6371 17.8632C16.7482 17.8623 16.858 17.8392 16.9601 17.7953C17.0621 17.7515 17.1544 17.6878 17.2316 17.6078L21.0682 13.7713C21.5389 13.3008 21.8036 12.6627 21.8039 11.9972C21.8042 11.3317 21.5402 10.6933 21.0699 10.2224Z" fill="#E97D32"/>
</svg>
