<svg width="17" height="16" viewBox="0 0 17 16" fill="none" xmlns="http://www.w3.org/2000/svg">
<g clip-path="url(#clip0_711_3402)">
<path d="M14.5078 0H11.1875C10.8207 0 10.5234 0.297812 10.5234 0.665156C10.5234 1.0325 10.8207 1.33031 11.1875 1.33031H14.2329L9.69598 5.87472C7.24061 3.93472 3.68002 4.35581 1.74323 6.81525C-0.193547 9.27469 0.226829 12.8411 2.6822 14.7811C5.13758 16.7211 8.69817 16.3 10.635 13.8406C12.2571 11.7807 12.2571 8.87519 10.635 6.81528L15.1719 2.27087V5.32131C15.1719 5.68869 15.4692 5.98647 15.836 5.98647C16.2027 5.98647 16.5 5.68866 16.5 5.32131V1.9955C16.5 0.893406 15.6081 0 14.5078 0ZM6.20695 14.6336C3.82305 14.6336 1.89052 12.6979 1.89052 10.31C1.89052 7.92219 3.82305 5.98647 6.20695 5.98647C8.59086 5.98647 10.5234 7.92219 10.5234 10.31C10.5205 12.6967 8.58964 14.6307 6.20695 14.6336Z" fill="#00A8B5"/>
</g>
<defs>
<clipPath id="clip0_711_3402">
<rect width="16" height="16" fill="white" transform="translate(0.5)"/>
</clipPath>
</defs>
</svg>
