<svg width="13" height="13" viewBox="0 0 13 13" fill="none" xmlns="http://www.w3.org/2000/svg">
    <path
        d="M11.0509 1.08372L11.0404 1.08022L9.68294 0.630216C9.21404 0.474544 8.70961 0.460803 8.23294 0.590716L5.44494 1.40022C5.10356 1.49068 4.7413 1.45884 4.42094 1.31022L4.17094 1.19422C3.79123 1.0363 3.37844 0.974495 2.96913 1.01427C2.55983 1.05404 2.16666 1.19417 1.82446 1.42224C1.48227 1.6503 1.20162 1.95926 1.00738 2.32173C0.813143 2.6842 0.711321 3.08898 0.710938 3.50022L0.710938 9.53772C0.711988 10.0784 0.887833 10.6042 1.21223 11.0367C1.53663 11.4693 1.99219 11.7853 2.51094 11.9377L3.94544 12.3877C4.18745 12.463 4.4395 12.5009 4.69294 12.5002C4.91884 12.5031 5.14394 12.4726 5.36094 12.4097L8.26094 11.6097C8.52595 11.5378 8.80561 11.5401 9.06944 11.6162L10.2409 11.9542C10.535 12.0253 10.8415 12.0288 11.1371 11.9643C11.4327 11.8998 11.7099 11.7691 11.9477 11.582C12.1855 11.3949 12.3777 11.1563 12.5099 10.8841C12.6421 10.6119 12.7109 10.3133 12.7109 10.0107V3.43822C12.7102 2.92264 12.5504 2.41985 12.2533 1.99846C11.9562 1.57708 11.5363 1.25763 11.0509 1.08372ZM2.79894 10.9797C2.48609 10.8892 2.21098 10.6998 2.01484 10.4399C1.81869 10.1799 1.71206 9.86338 1.71094 9.53772V3.50022C1.70851 3.25256 1.76842 3.00826 1.88515 2.78983C2.00188 2.57139 2.17169 2.38582 2.37894 2.25022C2.62554 2.08664 2.91502 1.99966 3.21094 2.00022C3.40177 2.00027 3.59071 2.03799 3.76694 2.11122C3.76694 2.11122 4.13944 2.27072 4.21044 2.29622V11.4212L2.79894 10.9797ZM5.21094 11.4137V2.43972C5.38077 2.4307 5.54927 2.40474 5.71394 2.36222L8.21094 1.63672V10.6002L5.21094 11.4137ZM11.7109 10.0107C11.711 10.1605 11.6775 10.3084 11.6128 10.4434C11.5481 10.5785 11.4539 10.6973 11.3371 10.7911C11.2203 10.8849 11.084 10.9513 10.9381 10.9853C10.7923 11.0193 10.6407 11.0201 10.4944 10.9877L9.21094 10.6262V1.53772L10.7199 2.02722C11.0099 2.13229 11.2606 2.32406 11.4379 2.57648C11.6152 2.8289 11.7105 3.12976 11.7109 3.43822V10.0107Z"
        fill="#6D6D6D" />
</svg>
