<svg width="17" height="17" viewBox="0 0 17 17" fill="none" xmlns="http://www.w3.org/2000/svg">
    <g clip-path="url(#clip0_159_4096)">
        <path
            d="M4.11182 11.8333C4.6641 11.8333 5.11182 11.3855 5.11182 10.8333C5.11182 10.281 4.6641 9.83325 4.11182 9.83325C3.55953 9.83325 3.11182 10.281 3.11182 10.8333C3.11182 11.3855 3.55953 11.8333 4.11182 11.8333Z"
            fill="#00A8B5" />
        <path
            d="M13.112 2.5H3.77865C2.89492 2.50106 2.04768 2.85259 1.42279 3.47748C0.7979 4.10237 0.446371 4.9496 0.445313 5.83333L0.445312 11.1667C0.446371 12.0504 0.7979 12.8976 1.42279 13.5225C2.04768 14.1474 2.89492 14.4989 3.77865 14.5H13.112C13.9957 14.4989 14.8429 14.1474 15.4678 13.5225C16.0927 12.8976 16.4443 12.0504 16.4453 11.1667V5.83333C16.4443 4.9496 16.0927 4.10237 15.4678 3.47748C14.8429 2.85259 13.9957 2.50106 13.112 2.5ZM3.77865 3.83333H13.112C13.6424 3.83333 14.1511 4.04405 14.5262 4.41912C14.9013 4.79419 15.112 5.3029 15.112 5.83333H1.77865C1.77865 5.3029 1.98936 4.79419 2.36443 4.41912C2.73951 4.04405 3.24821 3.83333 3.77865 3.83333ZM13.112 13.1667H3.77865C3.24821 13.1667 2.73951 12.956 2.36443 12.5809C1.98936 12.2058 1.77865 11.6971 1.77865 11.1667V7.16667H15.112V11.1667C15.112 11.6971 14.9013 12.2058 14.5262 12.5809C14.1511 12.956 13.6424 13.1667 13.112 13.1667Z"
            fill="#00A8B5" />
    </g>
    <defs>
        <clipPath id="clip0_159_4096">
            <rect width="16" height="16" fill="white" transform="translate(0.445312 0.5)" />
        </clipPath>
    </defs>
</svg>
