<svg width="15" height="15" viewBox="0 0 15 15" fill="none" xmlns="http://www.w3.org/2000/svg">
<path d="M12.3043 0.5H9.39417C9.07274 0.5 8.81216 0.760586 8.81216 1.08201C8.81216 1.40344 9.07274 1.66402 9.39417 1.66402H12.0633L8.08695 5.64038C5.93494 3.94288 2.81431 4.31134 1.11681 6.46334C-0.580694 8.61535 -0.21221 11.736 1.9398 13.4335C4.09181 15.131 7.21244 14.7625 8.90994 12.6105C10.3317 10.8081 10.3317 8.26579 8.90994 6.46337L12.8863 2.48702V5.15615C12.8863 5.4776 13.1469 5.73816 13.4683 5.73816C13.7897 5.73816 14.0503 5.47757 14.0503 5.15615V2.24606C14.0503 1.28173 13.2686 0.5 12.3043 0.5Z" fill="#00A8B5"/>
</svg>
