<svg width="53" height="54" viewBox="0 0 53 54" fill="none" xmlns="http://www.w3.org/2000/svg">
<g clip-path="url(#clip0_1863_5327)">
<path d="M19.875 54H2.20833C1.62265 54 1.06095 53.7629 0.646806 53.341C0.232663 52.919 0 52.3467 0 51.75C0 51.1533 0.232663 50.581 0.646806 50.159C1.06095 49.7371 1.62265 49.5 2.20833 49.5H19.875C20.4607 49.5 21.0224 49.7371 21.4365 50.159C21.8507 50.581 22.0833 51.1533 22.0833 51.75C22.0833 52.3467 21.8507 52.919 21.4365 53.341C21.0224 53.7629 20.4607 54 19.875 54Z" fill="#D1D1D1"/>
<path d="M15.4583 45H2.20833C1.62265 45 1.06095 44.7629 0.646806 44.341C0.232663 43.919 0 43.3467 0 42.75C0 42.1533 0.232663 41.581 0.646806 41.159C1.06095 40.7371 1.62265 40.5 2.20833 40.5H15.4583C16.044 40.5 16.6057 40.7371 17.0199 41.159C17.434 41.581 17.6667 42.1533 17.6667 42.75C17.6667 43.3467 17.434 43.919 17.0199 44.341C16.6057 44.7629 16.044 45 15.4583 45Z" fill="#D1D1D1"/>
<path d="M11.0417 36H2.20833C1.62265 36 1.06095 35.7629 0.646806 35.341C0.232663 34.919 0 34.3467 0 33.75C0 33.1533 0.232663 32.581 0.646806 32.159C1.06095 31.7371 1.62265 31.5 2.20833 31.5H11.0417C11.6274 31.5 12.1891 31.7371 12.6032 32.159C13.0173 32.581 13.25 33.1533 13.25 33.75C13.25 34.3467 13.0173 34.919 12.6032 35.341C12.1891 35.7629 11.6274 36 11.0417 36Z" fill="#D1D1D1"/>
<path d="M28.7082 53.8987C28.1225 53.9253 27.5505 53.7137 27.1179 53.3105C26.6853 52.9073 26.4277 52.3456 26.4016 51.7488C26.3755 51.1521 26.5832 50.5692 26.9789 50.1285C27.3746 49.6878 27.926 49.4253 28.5117 49.3987C32.6909 49.0091 36.6746 47.4143 39.9962 44.801C43.3178 42.1878 45.8398 38.6643 47.2669 34.6432C48.6939 30.6222 48.9669 26.2702 48.0538 22.0968C47.1407 17.9234 45.0793 14.1015 42.1112 11.0787C39.143 8.05597 35.3909 5.95749 31.2944 5.02908C27.1979 4.10068 22.9266 4.38078 18.9807 5.83659C15.0348 7.2924 11.5777 9.86363 9.01435 13.2491C6.45102 16.6346 4.88756 20.6942 4.50709 24.9524C4.45438 25.5468 4.17209 26.0955 3.72233 26.4778C3.27257 26.8601 2.69218 27.0447 2.10884 26.9909C1.5255 26.9372 0.986983 26.6496 0.61177 26.1914C0.236556 25.7331 0.0553769 25.1418 0.108089 24.5474C0.723968 17.6249 3.93646 11.211 9.07686 6.64097C14.2172 2.07092 20.8895 -0.303202 27.7046 0.012805C34.5198 0.328812 40.9528 3.3106 45.6645 8.33748C50.3763 13.3644 53.0037 20.049 52.9999 26.9999C53.0337 33.7462 50.5739 40.2583 46.1097 45.2407C41.6454 50.2232 35.504 53.3109 28.907 53.8897C28.8407 53.8965 28.7723 53.8987 28.7082 53.8987Z" fill="#D1D1D1"/>
<path d="M26.4998 13.5C25.9142 13.5 25.3525 13.7371 24.9383 14.159C24.5242 14.581 24.2915 15.1533 24.2915 15.75V27C24.2916 27.5967 24.5244 28.1689 24.9385 28.5908L31.5635 35.3408C31.98 35.7506 32.5379 35.9774 33.1169 35.9723C33.6959 35.9671 34.2498 35.7305 34.6592 35.3133C35.0687 34.8962 35.3009 34.3318 35.306 33.7419C35.311 33.152 35.0884 32.5836 34.6861 32.1593L28.7082 26.0685V15.75C28.7082 15.1533 28.4755 14.581 28.0614 14.159C27.6472 13.7371 27.0855 13.5 26.4998 13.5Z" fill="#D1D1D1"/>
</g>
<defs>
<clipPath id="clip0_1863_5327">
<rect width="53" height="54" fill="white"/>
</clipPath>
</defs>
</svg>
