<svg width="21" height="21" viewBox="0 0 21 21" fill="none" xmlns="http://www.w3.org/2000/svg">
<g clip-path="url(#clip0_176_2532)">
<path d="M15.8984 20.5H9.59594L9.83844 19.475C9.96315 18.9922 10.0391 18.498 10.0651 18C10.0651 17.558 9.88951 17.134 9.57695 16.8215C9.26439 16.5089 8.84046 16.3333 8.39844 16.3333C7.95641 16.3333 7.53249 16.5089 7.21993 16.8215C6.90737 17.134 6.73177 17.558 6.73177 18C6.75779 18.498 6.83373 18.9922 6.95844 19.475L7.20094 20.5H0.898438V8C0.898438 7.33696 1.16183 6.70107 1.63067 6.23223C2.09951 5.76339 2.7354 5.5 3.39844 5.5H5.29177C5.1598 4.95359 5.08385 4.39515 5.0651 3.83333C5.0651 2.94928 5.41629 2.10143 6.04141 1.47631C6.66654 0.85119 7.51438 0.5 8.39844 0.5C9.28249 0.5 10.1303 0.85119 10.7555 1.47631C11.3806 2.10143 11.7318 2.94928 11.7318 3.83333C11.713 4.39515 11.6371 4.95359 11.5051 5.5H13.3984C14.0615 5.5 14.6974 5.76339 15.1662 6.23223C15.635 6.70107 15.8984 7.33696 15.8984 8V9.47667C16.4449 9.34521 17.0033 9.26927 17.5651 9.25C18.4492 9.25 19.297 9.60119 19.9221 10.2263C20.5472 10.8514 20.8984 11.6993 20.8984 12.5833C20.8984 13.4674 20.5472 14.3152 19.9221 14.9404C19.297 15.5655 18.4492 15.9167 17.5651 15.9167C17.0033 15.8974 16.4449 15.8215 15.8984 15.69V20.5ZM11.6601 18.8333H14.2318V13.485L15.3076 13.8117C16.0392 14.0501 16.7974 14.1973 17.5651 14.25C18.0071 14.25 18.4311 14.0744 18.7436 13.7618C19.0562 13.4493 19.2318 13.0254 19.2318 12.5833C19.2318 12.1413 19.0562 11.7174 18.7436 11.4048C18.4311 11.0923 18.0071 10.9167 17.5651 10.9167C16.7974 10.9694 16.0392 11.1166 15.3076 11.355L14.2318 11.6817V8C14.2318 7.77899 14.144 7.56702 13.9877 7.41074C13.8314 7.25446 13.6195 7.16667 13.3984 7.16667H9.3001L9.62677 6.09083C9.86538 5.35928 10.0126 4.60103 10.0651 3.83333C10.0651 3.39131 9.88951 2.96738 9.57695 2.65482C9.26439 2.34226 8.84046 2.16667 8.39844 2.16667C7.95641 2.16667 7.53249 2.34226 7.21993 2.65482C6.90737 2.96738 6.73177 3.39131 6.73177 3.83333C6.78426 4.60103 6.93149 5.35928 7.1701 6.09083L7.49677 7.16667H3.39844C3.17742 7.16667 2.96546 7.25446 2.80918 7.41074C2.6529 7.56702 2.5651 7.77899 2.5651 8V18.8333H5.13677C5.09339 18.5576 5.06944 18.2791 5.0651 18C5.0651 17.1159 5.41629 16.2681 6.04141 15.643C6.66654 15.0179 7.51438 14.6667 8.39844 14.6667C9.28249 14.6667 10.1303 15.0179 10.7555 15.643C11.3806 16.2681 11.7318 17.1159 11.7318 18C11.7274 18.2791 11.7035 18.5576 11.6601 18.8333Z" fill="#185E7C"/>
</g>
<defs>
<clipPath id="clip0_176_2532">
<rect width="20" height="20" fill="white" transform="translate(0.898438 0.5)"/>
</clipPath>
</defs>
</svg>
