<svg width="17" height="16" viewBox="0 0 17 16" fill="none" xmlns="http://www.w3.org/2000/svg">
<g clip-path="url(#clip0_176_2479)">
<path d="M15.792 7.33333C15.6152 7.33333 15.4456 7.26309 15.3206 7.13807C15.1956 7.01305 15.1254 6.84348 15.1254 6.66667C15.1239 5.25261 14.5616 3.89688 13.5617 2.89699C12.5618 1.8971 11.2061 1.33474 9.79203 1.33333C9.61522 1.33333 9.44565 1.26309 9.32062 1.13807C9.1956 1.01305 9.12536 0.843476 9.12536 0.666665C9.12536 0.489854 9.1956 0.320285 9.32062 0.19526C9.44565 0.0702361 9.61522 -1.81643e-06 9.79203 -1.81643e-06C11.5595 0.00193925 13.2541 0.704942 14.5039 1.95476C15.7537 3.20459 16.4568 4.89915 16.4587 6.66667C16.4587 6.84348 16.3885 7.01305 16.2634 7.13807C16.1384 7.26309 15.9688 7.33333 15.792 7.33333ZM13.792 6.66667C13.792 5.6058 13.3706 4.58838 12.6205 3.83824C11.8703 3.08809 10.8529 2.66666 9.79203 2.66666C9.61522 2.66666 9.44565 2.7369 9.32062 2.86193C9.1956 2.98695 9.12536 3.15652 9.12536 3.33333C9.12536 3.51014 9.1956 3.67971 9.32062 3.80474C9.44565 3.92976 9.61522 4 9.79203 4C10.4993 4 11.1775 4.28095 11.6776 4.78105C12.1777 5.28114 12.4587 5.95942 12.4587 6.66667C12.4587 6.84348 12.5289 7.01305 12.654 7.13807C12.779 7.26309 12.9485 7.33333 13.1254 7.33333C13.3022 7.33333 13.4717 7.26309 13.5968 7.13807C13.7218 7.01305 13.792 6.84348 13.792 6.66667ZM15.2474 14.776L15.854 14.0767C16.2402 13.6893 16.457 13.1646 16.457 12.6177C16.457 12.0707 16.2402 11.546 15.854 11.1587C15.8334 11.138 14.2294 9.904 14.2294 9.904C13.8444 9.53755 13.333 9.3335 12.8016 9.33425C12.2701 9.33499 11.7593 9.54047 11.3754 9.908L10.1047 10.9787C9.06748 10.5494 8.12528 9.91945 7.33222 9.12501C6.53915 8.33057 5.91084 7.38729 5.48336 6.34933L6.55003 5.08266C6.91784 4.69878 7.12356 4.18792 7.12443 3.65627C7.1253 3.12462 6.92125 2.61308 6.55469 2.228C6.55469 2.228 5.31936 0.625998 5.29869 0.605332C4.91833 0.222497 4.40261 0.00467953 3.86298 -0.00105863C3.32334 -0.00679678 2.80311 0.200005 2.41469 0.574665L1.64803 1.24133C-2.88131 6.496 6.87203 16.174 12.3 16C12.8481 16.0032 13.3914 15.8965 13.8976 15.6863C14.4038 15.4761 14.8627 15.1665 15.2474 14.776Z" fill="#185E7C"/>
</g>
<defs>
<clipPath id="clip0_176_2479">
<rect width="16" height="16" fill="white" transform="translate(0.458496)"/>
</clipPath>
</defs>
</svg>
