<svg width="22" height="22" viewBox="0 0 22 22" fill="none" xmlns="http://www.w3.org/2000/svg">
<path d="M0.746326 18.6298L0.724557 18.6516C0.430668 18.0094 0.245627 17.2801 0.169434 16.4746C0.245627 17.2692 0.452437 17.9876 0.746326 18.6298Z" fill="#00A8B5"/>
<path d="M7.73462 9.23681C9.1654 9.23681 10.3252 8.07696 10.3252 6.64624C10.3252 5.2155 9.1654 4.05566 7.73462 4.05566C6.30388 4.05566 5.14404 5.2155 5.14404 6.64624C5.14404 8.07696 6.30388 9.23681 7.73462 9.23681Z" fill="#00A8B5"/>
<path d="M15.5607 0.115234H6.43928C2.47723 0.115234 0.115234 2.47723 0.115234 6.43928V15.5607C0.115234 16.7472 0.322045 17.7812 0.724781 18.652C1.66087 20.7201 3.66367 21.8848 6.43928 21.8848H15.5607C19.5228 21.8848 21.8848 19.5228 21.8848 15.5607V13.0681V6.43928C21.8848 2.47723 19.5228 0.115234 15.5607 0.115234ZM20.1105 11.5442C19.2615 10.815 17.8901 10.815 17.041 11.5442L12.513 15.4301C11.664 16.1594 10.2925 16.1594 9.44348 15.4301L9.0734 15.1253C8.30058 14.4505 7.0706 14.3852 6.19982 14.9729L2.12892 17.705C1.88945 17.0955 1.74795 16.388 1.74795 15.5607V6.43928C1.74795 3.36978 3.36978 1.74795 6.43928 1.74795H15.5607C18.6302 1.74795 20.2521 3.36978 20.2521 6.43928V11.664L20.1105 11.5442Z" fill="#00A8B5"/>
</svg>
