<svg xmlns="http://www.w3.org/2000/svg" width="19" height="18" viewBox="0 0 19 18" fill="none">
    <g clip-path="url(#clip0_246_7497)">
        <path d="M9.55469 0C7.77466 0 6.0346 0.527841 4.55456 1.51677C3.07452 2.50571 1.92096 3.91131 1.23978 5.55585C0.558587 7.20038 0.380357 9.00998 0.727624 10.7558C1.07489 12.5016 1.93206 14.1053 3.19073 15.364C4.4494 16.6226 6.05305 17.4798 7.79888 17.8271C9.54471 18.1743 11.3543 17.9961 12.9988 17.3149C14.6434 16.6337 16.049 15.4802 17.0379 14.0001C18.0268 12.5201 18.5547 10.78 18.5547 9C18.5521 6.61384 17.6031 4.32616 15.9158 2.63889C14.2285 0.951621 11.9408 0.00258081 9.55469 0ZM9.55469 16.5C8.07133 16.5 6.62128 16.0601 5.38791 15.236C4.15455 14.4119 3.19325 13.2406 2.6256 11.8701C2.05794 10.4997 1.90941 8.99168 2.1988 7.53682C2.48819 6.08197 3.2025 4.74559 4.25139 3.6967C5.30028 2.64781 6.63666 1.9335 8.09151 1.64411C9.54637 1.35472 11.0544 1.50325 12.4248 2.0709C13.7953 2.63856 14.9666 3.59985 15.7907 4.83322C16.6148 6.06659 17.0547 7.51664 17.0547 9C17.0525 10.9885 16.2616 12.8948 14.8556 14.3009C13.4495 15.7069 11.5431 16.4978 9.55469 16.5Z" fill="#00A8B5"/>
        <path d="M9.55469 3.75C9.35578 3.75 9.16501 3.82902 9.02436 3.96967C8.88371 4.11032 8.80469 4.30109 8.80469 4.5V10.5C8.80469 10.6989 8.88371 10.8897 9.02436 11.0303C9.16501 11.171 9.35578 11.25 9.55469 11.25C9.7536 11.25 9.94437 11.171 10.085 11.0303C10.2257 10.8897 10.3047 10.6989 10.3047 10.5V4.5C10.3047 4.30109 10.2257 4.11032 10.085 3.96967C9.94437 3.82902 9.7536 3.75 9.55469 3.75Z" fill="#00A8B5"/>
        <path d="M10.3047 13.5C10.3047 13.0858 9.9689 12.75 9.55469 12.75C9.14047 12.75 8.80469 13.0858 8.80469 13.5C8.80469 13.9142 9.14047 14.25 9.55469 14.25C9.9689 14.25 10.3047 13.9142 10.3047 13.5Z" fill="#00A8B5"/>
    </g>
    <defs>
        <clipPath id="clip0_246_7497">
            <rect width="18" height="18" fill="white" transform="translate(0.554688)"/>
        </clipPath>
    </defs>
</svg>