<svg width="21" height="21" viewBox="0 0 21 21" fill="none" xmlns="http://www.w3.org/2000/svg">
<g clip-path="url(#clip0_176_2997)">
<path d="M10.3984 10.5C11.3873 10.5 12.354 10.2068 13.1763 9.65735C13.9985 9.10794 14.6394 8.32705 15.0178 7.41342C15.3963 6.49979 15.4953 5.49446 15.3024 4.52455C15.1094 3.55465 14.6332 2.66373 13.934 1.96447C13.2347 1.26521 12.3438 0.789002 11.3739 0.596076C10.404 0.40315 9.39865 0.502166 8.48502 0.880605C7.57139 1.25904 6.7905 1.89991 6.24109 2.72215C5.69168 3.5444 5.39844 4.5111 5.39844 5.5C5.39976 6.82568 5.92697 8.09668 6.86437 9.03407C7.80176 9.97147 9.07276 10.4987 10.3984 10.5ZM10.3984 2.16667C11.0577 2.16667 11.7022 2.36217 12.2503 2.72844C12.7985 3.09471 13.2257 3.6153 13.478 4.22439C13.7303 4.83348 13.7963 5.5037 13.6677 6.1503C13.5391 6.79691 13.2216 7.39085 12.7555 7.85703C12.2893 8.3232 11.6953 8.64067 11.0487 8.76929C10.4021 8.8979 9.73191 8.83189 9.12283 8.5796C8.51374 8.32731 7.99314 7.90007 7.62687 7.3519C7.2606 6.80374 7.0651 6.15927 7.0651 5.5C7.0651 4.61595 7.41629 3.7681 8.04141 3.14298C8.66654 2.51786 9.51438 2.16667 10.3984 2.16667Z" fill="#185E7C"/>
<path d="M10.3984 12.1666C8.40999 12.1688 6.50362 12.9597 5.09757 14.3658C3.69153 15.7718 2.90064 17.6782 2.89844 19.6666C2.89844 19.8876 2.98623 20.0996 3.14252 20.2559C3.2988 20.4122 3.51076 20.5 3.73177 20.5C3.95278 20.5 4.16475 20.4122 4.32103 20.2559C4.47731 20.0996 4.5651 19.8876 4.5651 19.6666C4.5651 18.1195 5.17969 16.6358 6.27365 15.5418C7.36761 14.4479 8.85134 13.8333 10.3984 13.8333C11.9455 13.8333 13.4293 14.4479 14.5232 15.5418C15.6172 16.6358 16.2318 18.1195 16.2318 19.6666C16.2318 19.8876 16.3196 20.0996 16.4758 20.2559C16.6321 20.4122 16.8441 20.5 17.0651 20.5C17.2861 20.5 17.4981 20.4122 17.6544 20.2559C17.8106 20.0996 17.8984 19.8876 17.8984 19.6666C17.8962 17.6782 17.1053 15.7718 15.6993 14.3658C14.2933 12.9597 12.3869 12.1688 10.3984 12.1666Z" fill="#185E7C"/>
</g>
<defs>
<clipPath id="clip0_176_2997">
<rect width="20" height="20" fill="white" transform="translate(0.398438 0.5)"/>
</clipPath>
</defs>
</svg>
