<svg width="15" height="15" viewBox="0 0 15 15" fill="none" xmlns="http://www.w3.org/2000/svg">
<path d="M3.26281 4.58333C4.38864 4.58333 5.30447 3.6675 5.30447 2.54167C5.30447 1.41583 4.38864 0.5 3.26281 0.5C2.13697 0.5 1.22114 1.41583 1.22114 2.54167C1.22114 3.6675 2.13697 4.58333 3.26281 4.58333ZM10.2628 10.4167C11.7101 10.4167 12.8878 9.23892 12.8878 7.79167C12.8878 6.34442 11.7101 5.16667 10.2628 5.16667C8.81556 5.16667 7.63781 6.34442 7.63781 7.79167C7.63781 9.23892 8.81556 10.4167 10.2628 10.4167ZM4.97372 11.3541C5.41706 11.7986 5.41706 12.5342 4.96614 12.9862L3.68339 14.3209C3.56906 14.4399 3.41622 14.5 3.26281 14.5C3.11697 14.5 2.97172 14.4458 2.85856 14.3372C2.62639 14.1138 2.61881 13.7446 2.84222 13.5124L3.57489 12.75H2.38781C1.10097 12.75 0.0544725 11.7035 0.0544725 10.4167V9.83333C0.0544725 9.51075 0.315806 9.25 0.637806 9.25C0.959806 9.25 1.22114 9.51075 1.22114 9.83333V10.4167C1.22114 11.0601 1.74439 11.5833 2.38781 11.5833H3.57139L2.84222 10.8209C2.61881 10.5887 2.62581 10.2195 2.85856 9.99608C3.09072 9.77325 3.45997 9.77967 3.68339 10.0118L4.97372 11.3541ZM14.0306 13.7516C13.5546 12.1317 12.0046 10.9994 10.2628 10.9994C8.52097 10.9994 6.97106 12.1311 6.49506 13.7516C6.44314 13.9283 6.47756 14.1185 6.58781 14.2661C6.69806 14.4131 6.87131 14.4994 7.05506 14.4994H13.4717C13.6555 14.4994 13.8287 14.4131 13.939 14.2661C14.0486 14.1185 14.0825 13.9283 14.0306 13.7516ZM3.26281 5.16667C1.84297 5.16667 0.568973 6.02242 0.0912225 7.29525C0.0241392 7.47433 0.0492225 7.67442 0.158306 7.83192C0.267389 7.98942 0.446473 8.08333 0.637806 8.08333H5.88781C6.07914 8.08333 6.25822 7.98942 6.36731 7.83192C6.47639 7.67442 6.50089 7.47433 6.43439 7.29525C5.95722 6.02183 4.68264 5.16667 3.26281 5.16667Z" fill="#00A8B5"/>
</svg>
