<svg width="17" height="17" viewBox="0 0 17 17" fill="none" xmlns="http://www.w3.org/2000/svg">
<g id="fi_3405802" clip-path="url(#clip0_2281_2335)">
<path id="Vector" d="M7.9736 2.40873V6.46941C7.9736 6.77712 7.85137 7.07222 7.63379 7.2898C7.41621 7.50737 7.12111 7.62961 6.81341 7.62961H2.75272C2.44502 7.62961 2.14992 7.50737 1.93234 7.2898C1.71476 7.07222 1.59253 6.77712 1.59253 6.46941V2.40873C1.59253 2.10103 1.71476 1.80593 1.93234 1.58835C2.14992 1.37077 2.44502 1.24854 2.75272 1.24854H6.81341C7.12111 1.24854 7.41621 1.37077 7.63379 1.58835C7.85137 1.80593 7.9736 2.10103 7.9736 2.40873ZM14.9348 1.24854H10.8741C10.5664 1.24854 10.2713 1.37077 10.0537 1.58835C9.83613 1.80593 9.7139 2.10103 9.7139 2.40873V6.46941C9.7139 6.77712 9.83613 7.07222 10.0537 7.2898C10.2713 7.50737 10.5664 7.62961 10.8741 7.62961H14.9348C15.2425 7.62961 15.5376 7.50737 15.7552 7.2898C15.9727 7.07222 16.095 6.77712 16.095 6.46941V2.40873C16.095 2.10103 15.9727 1.80593 15.7552 1.58835C15.5376 1.37077 15.2425 1.24854 14.9348 1.24854ZM6.81341 9.3699H2.75272C2.44502 9.3699 2.14992 9.49214 1.93234 9.70972C1.71476 9.92729 1.59253 10.2224 1.59253 10.5301V14.5908C1.59253 14.8985 1.71476 15.1936 1.93234 15.4112C2.14992 15.6287 2.44502 15.751 2.75272 15.751H6.81341C7.12111 15.751 7.41621 15.6287 7.63379 15.4112C7.85137 15.1936 7.9736 14.8985 7.9736 14.5908V10.5301C7.9736 10.2224 7.85137 9.92729 7.63379 9.70972C7.41621 9.49214 7.12111 9.3699 6.81341 9.3699ZM12.9044 9.3699C12.2734 9.3699 11.6565 9.55702 11.1319 9.90761C10.6072 10.2582 10.1982 10.7565 9.95676 11.3395C9.71528 11.9225 9.65209 12.564 9.7752 13.1829C9.89831 13.8018 10.2022 14.3703 10.6484 14.8165C11.0946 15.2627 11.6631 15.5666 12.282 15.6897C12.9009 15.8128 13.5424 15.7496 14.1254 15.5081C14.7084 15.2666 15.2067 14.8577 15.5573 14.333C15.9078 13.8083 16.095 13.1915 16.095 12.5604C16.095 11.7143 15.7588 10.9027 15.1605 10.3044C14.5621 9.70605 13.7506 9.3699 12.9044 9.3699Z" fill="#005F6A"/>
</g>
<defs>
<clipPath id="clip0_2281_2335">
<rect width="16" height="16" fill="white" transform="translate(0.84375 0.5)"/>
</clipPath>
</defs>
</svg>
