<svg width="25" height="25" viewBox="0 0 25 25" fill="none" xmlns="http://www.w3.org/2000/svg">
<path d="M11.5939 15.0098C11.372 15.0098 11.1592 15.0979 11.0023 15.2548C10.8454 15.4117 10.7573 15.6245 10.7573 15.8464V18.3561C10.7573 19.0218 10.4928 19.6601 10.0222 20.1308C9.5515 20.6015 8.91313 20.8659 8.2475 20.8659H6.17611C5.51048 20.8659 4.87211 20.6015 4.40143 20.1308C3.93076 19.6601 3.66634 19.0218 3.66634 18.3561V6.64388C3.66634 5.97825 3.93076 5.33988 4.40143 4.86921C4.87211 4.39854 5.51048 4.13411 6.17611 4.13411H8.2475C8.91313 4.13411 9.5515 4.39854 10.0222 4.86921C10.4928 5.33988 10.7573 5.97825 10.7573 6.64388V9.15365C10.7573 9.37552 10.8454 9.58831 11.0023 9.7452C11.1592 9.90209 11.372 9.99023 11.5939 9.99023C11.8157 9.99023 12.0285 9.90209 12.1854 9.7452C12.3423 9.58831 12.4304 9.37552 12.4304 9.15365V6.64388C12.4291 5.5349 11.988 4.47173 11.2038 3.68756C10.4197 2.90339 9.35648 2.46227 8.2475 2.46094H6.17611C5.06713 2.46227 4.00395 2.90339 3.21979 3.68756C2.43562 4.47173 1.99449 5.5349 1.99316 6.64388L1.99316 18.3561C1.99449 19.4651 2.43562 20.5283 3.21979 21.3124C4.00395 22.0966 5.06713 22.5377 6.17611 22.5391H8.2475C9.35648 22.5377 10.4197 22.0966 11.2038 21.3124C11.988 20.5283 12.4291 19.4651 12.4304 18.3561V15.8464C12.4304 15.6245 12.3423 15.4117 12.1854 15.2548C12.0285 15.0979 11.8157 15.0098 11.5939 15.0098Z" fill="#00A8B5"/>
<path d="M21.1246 10.7224L17.288 6.88583C17.2108 6.80593 17.1185 6.7422 17.0164 6.69835C16.9144 6.65451 16.8046 6.63143 16.6935 6.63046C16.5824 6.6295 16.4723 6.65067 16.3694 6.69273C16.2666 6.73479 16.1732 6.79691 16.0947 6.87546C16.0161 6.95401 15.954 7.04742 15.9119 7.15023C15.8699 7.25305 15.8487 7.36321 15.8497 7.47429C15.8506 7.58537 15.8737 7.69515 15.9176 7.79722C15.9614 7.89928 16.0251 7.9916 16.105 8.06877L19.6714 11.6351L7.01383 11.6602C6.79196 11.6602 6.57917 11.7484 6.42228 11.9053C6.26539 12.0622 6.17725 12.275 6.17725 12.4968C6.17725 12.7187 6.26539 12.9315 6.42228 13.0884C6.57917 13.2453 6.79196 13.3334 7.01383 13.3334L19.7199 13.3083L16.1034 16.9249C16.0235 17.0021 15.9597 17.0944 15.9159 17.1964C15.872 17.2985 15.849 17.4083 15.848 17.5194C15.847 17.6305 15.8682 17.7406 15.9103 17.8434C15.9523 17.9462 16.0145 18.0397 16.093 18.1182C16.1715 18.1968 16.265 18.2589 16.3678 18.3009C16.4706 18.343 16.5807 18.3642 16.6918 18.3632C16.8029 18.3622 16.9127 18.3392 17.0148 18.2953C17.1168 18.2515 17.2091 18.1877 17.2863 18.1078L21.1229 14.2712C21.5936 13.8008 21.8582 13.1627 21.8586 12.4972C21.8589 11.8317 21.5949 11.1933 21.1246 10.7224Z" fill="#00A8B5"/>
</svg>
