<svg width="17" height="17" viewBox="0 0 17 17" fill="none" xmlns="http://www.w3.org/2000/svg">
    <path
        d="M13.112 3.16667H12.3786C12.2239 2.41428 11.8145 1.73823 11.2195 1.25248C10.6244 0.766727 9.88012 0.50097 9.11198 0.5L7.77865 0.5C7.01051 0.50097 6.26619 0.766727 5.67115 1.25248C5.0761 1.73823 4.66671 2.41428 4.51198 3.16667H3.77865C2.89492 3.16773 2.04768 3.51925 1.42279 4.14415C0.7979 4.76904 0.446371 5.61627 0.445313 6.5L0.445312 13.1667C0.446371 14.0504 0.7979 14.8976 1.42279 15.5225C2.04768 16.1474 2.89492 16.4989 3.77865 16.5H13.112C13.9957 16.4989 14.8429 16.1474 15.4678 15.5225C16.0927 14.8976 16.4443 14.0504 16.4453 13.1667V6.5C16.4443 5.61627 16.0927 4.76904 15.4678 4.14415C14.8429 3.51925 13.9957 3.16773 13.112 3.16667ZM7.77865 1.83333H9.11198C9.52415 1.83504 9.92573 1.96406 10.2618 2.20273C10.5978 2.44139 10.8519 2.77806 10.9893 3.16667H5.90131C6.0387 2.77806 6.2928 2.44139 6.62885 2.20273C6.96489 1.96406 7.36647 1.83504 7.77865 1.83333ZM3.77865 4.5H13.112C13.6424 4.5 14.1511 4.71071 14.5262 5.08579C14.9013 5.46086 15.112 5.96957 15.112 6.5V8.5H1.77865V6.5C1.77865 5.96957 1.98936 5.46086 2.36443 5.08579C2.73951 4.71071 3.24821 4.5 3.77865 4.5ZM13.112 15.1667H3.77865C3.24821 15.1667 2.73951 14.956 2.36443 14.5809C1.98936 14.2058 1.77865 13.6971 1.77865 13.1667V9.83333H7.77865V10.5C7.77865 10.6768 7.84888 10.8464 7.97391 10.9714C8.09893 11.0964 8.2685 11.1667 8.44531 11.1667C8.62212 11.1667 8.79169 11.0964 8.91672 10.9714C9.04174 10.8464 9.11198 10.6768 9.11198 10.5V9.83333H15.112V13.1667C15.112 13.6971 14.9013 14.2058 14.5262 14.5809C14.1511 14.956 13.6424 15.1667 13.112 15.1667Z"
        fill="#00A8B5" />
</svg>
