<svg width="17" height="17" viewBox="0 0 17 17" fill="none" xmlns="http://www.w3.org/2000/svg">
    <g clip-path="url(#clip0_2_12290)">
        <path fill-rule="evenodd" clip-rule="evenodd"
            d="M10.7839 10.245C7.85944 10.245 5.49741 7.87355 5.49741 4.9585C5.49741 7.87355 3.12599 10.245 0.210938 10.245C3.12599 10.245 5.49741 12.607 5.49741 15.5221C5.49741 12.607 7.85944 10.245 10.7839 10.245Z"
            fill="white" />
        <path fill-rule="evenodd" clip-rule="evenodd"
            d="M16.2108 12.973C14.608 12.973 13.3145 11.6701 13.3145 10.0767C13.3145 11.6701 12.0117 12.973 10.4182 12.973C12.0117 12.973 13.3145 14.2665 13.3145 15.8693C13.3145 14.2665 14.608 12.973 16.2108 12.973Z"
            fill="white" />
        <path fill-rule="evenodd" clip-rule="evenodd"
            d="M14.5425 4.16201C12.5929 4.16201 11.0182 2.58731 11.0182 0.637695C11.0182 2.58731 9.44352 4.16201 7.4939 4.16201C9.44352 4.16201 11.0182 5.7367 11.0182 7.68632C11.0182 5.7367 12.5929 4.16201 14.5425 4.16201Z"
            fill="white" />
    </g>
    <defs>
        <clipPath id="clip0_2_12290">
            <rect width="16" height="16" fill="white" transform="translate(0.210938 0.253418)" />
        </clipPath>
    </defs>
</svg>
