<svg width="12" height="11" viewBox="0 0 12 11" fill="none" xmlns="http://www.w3.org/2000/svg">
    <path
        d="M11.1952 3.99136C11.1573 3.87468 11.0564 3.78967 10.935 3.77203L7.52498 3.27649L5.99993 0.186467C5.94564 0.0764667 5.83362 0.00683594 5.71095 0.00683594C5.58829 0.00683594 5.47625 0.0764882 5.42196 0.186467L3.89683 3.27652L0.486859 3.77203C0.365472 3.78967 0.264625 3.8747 0.226726 3.99136C0.188806 4.10802 0.220431 4.23609 0.308259 4.32171L2.77569 6.72699L2.1933 10.1233C2.17256 10.2442 2.22228 10.3664 2.32151 10.4385C2.42073 10.5106 2.55226 10.5201 2.6609 10.463L5.71093 8.8595L8.76087 10.463C8.80802 10.4878 8.8595 10.5 8.91081 10.5C8.97762 10.5 9.04414 10.4793 9.10025 10.4385C9.19949 10.3664 9.24921 10.2442 9.22847 10.1233L8.6459 6.72699L11.1136 4.32173C11.2014 4.23609 11.2331 4.10802 11.1952 3.99136ZM8.0747 6.38369C7.99873 6.45772 7.96406 6.56441 7.98202 6.66896L8.48284 9.58864L5.86093 8.21016C5.76704 8.16081 5.65487 8.16081 5.56099 8.21016L2.93893 9.58866L3.4396 6.66894C3.45752 6.56439 3.42287 6.45775 3.34694 6.38371L1.22577 4.31597L4.1572 3.88996C4.26217 3.8747 4.35288 3.80879 4.39985 3.71368L5.71093 1.05723L7.02197 3.71366C7.06893 3.80877 7.15964 3.8747 7.26461 3.88996L10.1961 4.31595L8.0747 6.38369Z"
        fill="#FFC107" />
    <path
        d="M10.205 4.34613C10.1459 4.15521 9.98358 4.01961 9.79159 4.00155L7.18364 3.75445L6.15239 1.23572C6.07635 1.05113 5.90317 0.931641 5.71077 0.931641C5.51836 0.931641 5.34518 1.05113 5.26915 1.23615L4.23789 3.75445L1.62953 4.00155C1.43788 4.02004 1.27601 4.15521 1.21652 4.34613C1.15702 4.53705 1.21197 4.74646 1.35694 4.87846L3.32825 6.6825L2.74695 9.35445C2.70442 9.55091 2.77749 9.75399 2.93371 9.87183C3.01768 9.93513 3.11591 9.96736 3.21498 9.96736C3.30039 9.96736 3.38512 9.94333 3.46116 9.89585L5.71077 8.49287L7.95955 9.89585C8.1241 9.99915 8.33154 9.98973 8.48741 9.87183C8.64369 9.75363 8.7167 9.55048 8.67416 9.35445L8.09287 6.6825L10.0642 4.87882C10.2092 4.74646 10.2645 4.53741 10.205 4.34613Z"
        fill="#FFC107" />
</svg>
