<svg width="16" height="15" viewBox="0 0 16 15" fill="none" xmlns="http://www.w3.org/2000/svg">
<path d="M9.15165 1.78945L10.3249 4.15525C10.4849 4.48457 10.9115 4.80046 11.2715 4.86095L13.3979 5.21716C14.7577 5.44568 15.0777 6.44039 14.0978 7.42166L12.4447 9.08846C12.1647 9.37073 12.0114 9.91513 12.098 10.305L12.5713 12.3683C12.9446 14.0015 12.0847 14.6333 10.6515 13.7797L8.65838 12.5901C8.29845 12.3751 7.70518 12.3751 7.33852 12.5901L5.34543 13.7797C3.91892 14.6333 3.05235 13.9948 3.42564 12.3683L3.89892 10.305C3.98558 9.91513 3.83226 9.37073 3.55229 9.08846L1.89914 7.42166C0.925918 6.44039 1.23922 5.44568 2.59906 5.21716L4.7255 4.86095C5.07879 4.80046 5.50541 4.48457 5.66539 4.15525L6.83858 1.78945C7.47852 0.505732 8.51838 0.505732 9.15165 1.78945Z" stroke="#00A8B5" stroke-width="1.5" stroke-linecap="round" stroke-linejoin="round"/>
</svg>
