<svg width="45" height="44" viewBox="0 0 45 44" fill="none" xmlns="http://www.w3.org/2000/svg">
<rect x="3.5" y="3" width="38" height="38" rx="19" fill="#5CB85C"/>
<rect x="3.5" y="3" width="38" height="38" rx="19" stroke="url(#paint0_linear_6583_27078)" stroke-width="6"/>
<mask id="mask0_6583_27078" style="mask-type:luminance" maskUnits="userSpaceOnUse" x="12" y="11" width="22" height="21">
<path d="M34 11H12V32H34V11Z" fill="white"/>
</mask>
<g mask="url(#mask0_6583_27078)">
<path fill-rule="evenodd" clip-rule="evenodd" d="M30.3786 16.5575C30.8081 16.9676 30.8081 17.6324 30.3786 18.0425L21.5786 26.4425C21.149 26.8525 20.4525 26.8525 20.0229 26.4425L15.623 22.2425C15.1934 21.8324 15.1934 21.1676 15.623 20.7575C16.0525 20.3475 16.749 20.3475 17.1786 20.7575L20.8008 24.2151L28.823 16.5575C29.2525 16.1475 29.949 16.1475 30.3786 16.5575Z" fill="white"/>
</g>
<defs>
<linearGradient id="paint0_linear_6583_27078" x1="22.5" y1="0" x2="22.5" y2="44" gradientUnits="userSpaceOnUse">
<stop stop-color="white"/>
<stop offset="1" stop-color="white" stop-opacity="0"/>
</linearGradient>
</defs>
</svg>
