<svg width="19" height="18" viewBox="0 0 19 18" fill="none" xmlns="http://www.w3.org/2000/svg">
<g clip-path="url(#clip0_528_3942)">
<path d="M16.3047 3H13.9797C13.8056 2.15356 13.3451 1.39301 12.6756 0.846539C12.0062 0.300068 11.1688 0.00109089 10.3047 0L8.80469 0C7.94053 0.00109089 7.10318 0.300068 6.43375 0.846539C5.76432 1.39301 5.30376 2.15356 5.12969 3H2.80469C2.60578 3 2.41501 3.07902 2.27436 3.21967C2.13371 3.36032 2.05469 3.55109 2.05469 3.75C2.05469 3.94891 2.13371 4.13968 2.27436 4.28033C2.41501 4.42098 2.60578 4.5 2.80469 4.5H3.55469V14.25C3.55588 15.2442 3.95135 16.1973 4.65435 16.9003C5.35736 17.6033 6.31049 17.9988 7.30469 18H11.8047C12.7989 17.9988 13.752 17.6033 14.455 16.9003C15.158 16.1973 15.5535 15.2442 15.5547 14.25V4.5H16.3047C16.5036 4.5 16.6944 4.42098 16.835 4.28033C16.9757 4.13968 17.0547 3.94891 17.0547 3.75C17.0547 3.55109 16.9757 3.36032 16.835 3.21967C16.6944 3.07902 16.5036 3 16.3047 3ZM8.80469 1.5H10.3047C10.7699 1.50057 11.2235 1.64503 11.6034 1.91358C11.9833 2.18213 12.2708 2.56162 12.4264 3H6.68294C6.83862 2.56162 7.12611 2.18213 7.50598 1.91358C7.88584 1.64503 8.33948 1.50057 8.80469 1.5ZM14.0547 14.25C14.0547 14.8467 13.8176 15.419 13.3957 15.841C12.9737 16.2629 12.4014 16.5 11.8047 16.5H7.30469C6.70795 16.5 6.13565 16.2629 5.7137 15.841C5.29174 15.419 5.05469 14.8467 5.05469 14.25V4.5H14.0547V14.25Z" fill="#00A8B5"/>
<path d="M8.05469 13.5C8.2536 13.5 8.44437 13.421 8.58502 13.2803C8.72567 13.1397 8.80469 12.9489 8.80469 12.75V8.25C8.80469 8.05109 8.72567 7.86032 8.58502 7.71967C8.44437 7.57902 8.2536 7.5 8.05469 7.5C7.85578 7.5 7.66501 7.57902 7.52436 7.71967C7.38371 7.86032 7.30469 8.05109 7.30469 8.25V12.75C7.30469 12.9489 7.38371 13.1397 7.52436 13.2803C7.66501 13.421 7.85578 13.5 8.05469 13.5Z" fill="#00A8B5"/>
<path d="M11.0547 13.5C11.2536 13.5 11.4444 13.421 11.585 13.2803C11.7257 13.1397 11.8047 12.9489 11.8047 12.75V8.25C11.8047 8.05109 11.7257 7.86032 11.585 7.71967C11.4444 7.57902 11.2536 7.5 11.0547 7.5C10.8558 7.5 10.665 7.57902 10.5244 7.71967C10.3837 7.86032 10.3047 8.05109 10.3047 8.25V12.75C10.3047 12.9489 10.3837 13.1397 10.5244 13.2803C10.665 13.421 10.8558 13.5 11.0547 13.5Z" fill="#00A8B5"/>
</g>
<defs>
<clipPath id="clip0_528_3942">
<rect width="18" height="18" fill="white" transform="translate(0.554688)"/>
</clipPath>
</defs>
</svg>
